<?xml version="1.0" encoding="UTF-8" standalone="no"?>
<!-- Created with Inkscape (http://www.inkscape.org/) -->

<svg
   xmlns:dc="http://purl.org/dc/elements/1.1/"
   xmlns:cc="http://creativecommons.org/ns#"
   xmlns:rdf="http://www.w3.org/1999/02/22-rdf-syntax-ns#"
   xmlns:svg="http://www.w3.org/2000/svg"
   xmlns="http://www.w3.org/2000/svg"
   xmlns:sodipodi="http://sodipodi.sourceforge.net/DTD/sodipodi-0.dtd"
   xmlns:inkscape="http://www.inkscape.org/namespaces/inkscape"
   width="11in"
   height="8.5in"
   viewBox="0 0 990 765"
   id="svg2"
   version="1.1"
   inkscape:version="0.91 r"
   sodipodi:docname="Tube.svg">
  <defs
     id="defs4">
    <marker
       inkscape:stockid="Arrow1Mstart"
       orient="auto"
       refY="0.0"
       refX="0.0"
       id="Arrow1Mstart"
       style="overflow:visible"
       inkscape:isstock="true">
      <path
         id="path4435"
         d="M 0.0,0.0 L 5.0,-5.0 L -12.5,0.0 L 5.0,5.0 L 0.0,0.0 z "
         style="fill-rule:evenodd;stroke:#000000;stroke-width:1pt;stroke-opacity:1;fill:#000000;fill-opacity:1"
         transform="scale(0.4) translate(10,0)" />
    </marker>
    <inkscape:path-effect
       effect="spiro"
       id="path-effect5004"
       is_visible="true" />
    <inkscape:path-effect
       effect="spiro"
       id="path-effect5000"
       is_visible="true" />
    <inkscape:perspective
       sodipodi:type="inkscape:persp3d"
       inkscape:vp_x="0 : 382.5 : 1"
       inkscape:vp_y="0 : 1000 : 0"
       inkscape:vp_z="990 : 382.5 : 1"
       inkscape:persp3d-origin="495 : 255 : 1"
       id="perspective4992" />
    <marker
       inkscape:stockid="Arrow1Mend"
       orient="auto"
       refY="0.0"
       refX="0.0"
       id="Arrow1Mend"
       style="overflow:visible;"
       inkscape:isstock="true">
      <path
         id="path4438"
         d="M 0.0,0.0 L 5.0,-5.0 L -12.5,0.0 L 5.0,5.0 L 0.0,0.0 z "
         style="fill-rule:evenodd;stroke:#000000;stroke-width:1pt;stroke-opacity:1;fill:#000000;fill-opacity:1"
         transform="scale(0.4) rotate(180) translate(10,0)" />
    </marker>
    <marker
       inkscape:stockid="Arrow1Lend"
       orient="auto"
       refY="0.0"
       refX="0.0"
       id="marker4685"
       style="overflow:visible;"
       inkscape:isstock="true">
      <path
         id="path4432"
         d="M 0.0,0.0 L 5.0,-5.0 L -12.5,0.0 L 5.0,5.0 L 0.0,0.0 z "
         style="fill-rule:evenodd;stroke:#000000;stroke-width:1pt;stroke-opacity:1;fill:#000000;fill-opacity:1"
         transform="scale(0.8) rotate(180) translate(12.5,0)" />
    </marker>
    <inkscape:path-effect
       effect="spiro"
       id="path-effect4423"
       is_visible="true" />
    <inkscape:path-effect
       effect="spiro"
       id="path-effect4329"
       is_visible="true" />
    <inkscape:path-effect
       effect="spiro"
       id="path-effect6108"
       is_visible="true" />
    <inkscape:path-effect
       effect="spiro"
       id="path-effect6086"
       is_visible="true" />
    <inkscape:path-effect
       effect="spiro"
       id="path-effect6082"
       is_visible="true" />
    <inkscape:path-effect
       effect="spiro"
       id="path-effect6078"
       is_visible="true" />
    <inkscape:path-effect
       effect="spiro"
       id="path-effect6038"
       is_visible="true" />
    <inkscape:path-effect
       effect="spiro"
       id="path-effect6034"
       is_visible="true" />
    <marker
       inkscape:isstock="true"
       style="overflow:visible"
       id="marker5644"
       refX="0"
       refY="0"
       orient="auto"
       inkscape:stockid="Arrow1Lend">
      <path
         inkscape:connector-curvature="0"
         transform="matrix(-0.8,0,0,-0.8,-10,0)"
         style="fill:#000000;fill-opacity:1;fill-rule:evenodd;stroke:#000000;stroke-width:1pt;stroke-opacity:1"
         d="M 0,0 5,-5 -12.5,0 5,5 0,0 Z"
         id="path5646" />
    </marker>
    <marker
       inkscape:isstock="true"
       style="overflow:visible"
       id="marker6901"
       refX="0"
       refY="0"
       orient="auto"
       inkscape:stockid="Arrow1Lend">
      <path
         transform="matrix(-0.8,0,0,-0.8,-10,0)"
         style="fill:#000000;fill-opacity:1;fill-rule:evenodd;stroke:#000000;stroke-width:1pt;stroke-opacity:1"
         d="M 0,0 5,-5 -12.5,0 5,5 0,0 Z"
         id="path6903"
         inkscape:connector-curvature="0" />
    </marker>
    <inkscape:path-effect
       effect="spiro"
       id="path-effect6893"
       is_visible="true" />
    <marker
       inkscape:isstock="true"
       style="overflow:visible"
       id="marker6805"
       refX="0"
       refY="0"
       orient="auto"
       inkscape:stockid="Arrow1Lend">
      <path
         transform="matrix(-0.8,0,0,-0.8,-10,0)"
         style="fill:#000000;fill-opacity:1;fill-rule:evenodd;stroke:#000000;stroke-width:1pt;stroke-opacity:1"
         d="M 0,0 5,-5 -12.5,0 5,5 0,0 Z"
         id="path6807"
         inkscape:connector-curvature="0" />
    </marker>
    <inkscape:path-effect
       effect="spiro"
       id="path-effect6797"
       is_visible="true" />
    <marker
       inkscape:isstock="true"
       style="overflow:visible"
       id="marker6521"
       refX="0"
       refY="0"
       orient="auto"
       inkscape:stockid="Arrow1Lend">
      <path
         transform="matrix(-0.8,0,0,-0.8,-10,0)"
         style="fill:#000000;fill-opacity:1;fill-rule:evenodd;stroke:#000000;stroke-width:1pt;stroke-opacity:1"
         d="M 0,0 5,-5 -12.5,0 5,5 0,0 Z"
         id="path6523"
         inkscape:connector-curvature="0" />
    </marker>
    <inkscape:path-effect
       effect="spiro"
       id="path-effect6465"
       is_visible="true" />
    <marker
       inkscape:isstock="true"
       style="overflow:visible"
       id="marker6311"
       refX="0"
       refY="0"
       orient="auto"
       inkscape:stockid="TriangleOutL">
      <path
         transform="scale(0.8,0.8)"
         style="fill:#000000;fill-opacity:1;fill-rule:evenodd;stroke:#000000;stroke-width:1pt;stroke-opacity:1"
         d="m 5.77,0 -8.65,5 0,-10 8.65,5 z"
         id="path6313"
         inkscape:connector-curvature="0" />
    </marker>
    <inkscape:path-effect
       effect="spiro"
       id="path-effect6303"
       is_visible="true" />
    <marker
       inkscape:stockid="Arrow1Lend"
       orient="auto"
       refY="0"
       refX="0"
       id="marker5138"
       style="overflow:visible"
       inkscape:isstock="true"
       inkscape:collect="always">
      <path
         id="path5140"
         d="M 0,0 5,-5 -12.5,0 5,5 0,0 Z"
         style="fill:#000000;fill-opacity:1;fill-rule:evenodd;stroke:#000000;stroke-width:1pt;stroke-opacity:1"
         transform="matrix(-0.8,0,0,-0.8,-10,0)"
         inkscape:connector-curvature="0" />
    </marker>
    <inkscape:path-effect
       effect="spiro"
       id="path-effect5088"
       is_visible="true" />
    <inkscape:path-effect
       effect="spiro"
       id="path-effect4874"
       is_visible="true" />
    <marker
       inkscape:stockid="TriangleOutL"
       orient="auto"
       refY="0"
       refX="0"
       id="TriangleOutL"
       style="overflow:visible"
       inkscape:isstock="true"
       inkscape:collect="always">
      <path
         id="path4312"
         d="m 5.77,0 -8.65,5 0,-10 8.65,5 z"
         style="fill:#000000;fill-opacity:1;fill-rule:evenodd;stroke:#000000;stroke-width:1pt;stroke-opacity:1"
         transform="scale(0.8,0.8)"
         inkscape:connector-curvature="0" />
    </marker>
    <marker
       inkscape:stockid="Tail"
       orient="auto"
       refY="0"
       refX="0"
       id="Tail"
       style="overflow:visible"
       inkscape:isstock="true">
      <g
         id="g4206"
         transform="scale(-1.2,-1.2)"
         style="fill:#000000;fill-opacity:1;stroke:#000000;stroke-opacity:1">
        <path
           id="path4208"
           d="M -3.8048674,-3.9585227 0.54352094,0"
           style="fill:#000000;fill-opacity:1;fill-rule:evenodd;stroke:#000000;stroke-width:0.80000001;stroke-linecap:round;stroke-opacity:1"
           inkscape:connector-curvature="0" />
        <path
           id="path4210"
           d="M -1.2866832,-3.9585227 3.0617053,0"
           style="fill:#000000;fill-opacity:1;fill-rule:evenodd;stroke:#000000;stroke-width:0.80000001;stroke-linecap:round;stroke-opacity:1"
           inkscape:connector-curvature="0" />
        <path
           id="path4212"
           d="M 1.3053582,-3.9585227 5.6537466,0"
           style="fill:#000000;fill-opacity:1;fill-rule:evenodd;stroke:#000000;stroke-width:0.80000001;stroke-linecap:round;stroke-opacity:1"
           inkscape:connector-curvature="0" />
        <path
           id="path4214"
           d="M -3.8048674,4.1775838 0.54352094,0.21974226"
           style="fill:#000000;fill-opacity:1;fill-rule:evenodd;stroke:#000000;stroke-width:0.80000001;stroke-linecap:round;stroke-opacity:1"
           inkscape:connector-curvature="0" />
        <path
           id="path4216"
           d="M -1.2866832,4.1775838 3.0617053,0.21974226"
           style="fill:#000000;fill-opacity:1;fill-rule:evenodd;stroke:#000000;stroke-width:0.80000001;stroke-linecap:round;stroke-opacity:1"
           inkscape:connector-curvature="0" />
        <path
           id="path4218"
           d="M 1.3053582,4.1775838 5.6537466,0.21974226"
           style="fill:#000000;fill-opacity:1;fill-rule:evenodd;stroke:#000000;stroke-width:0.80000001;stroke-linecap:round;stroke-opacity:1"
           inkscape:connector-curvature="0" />
      </g>
    </marker>
    <inkscape:path-effect
       effect="spiro"
       id="path-effect4622"
       is_visible="true" />
    <marker
       inkscape:isstock="true"
       style="overflow:visible"
       id="marker4592"
       refX="0"
       refY="0"
       orient="auto"
       inkscape:stockid="Arrow1Lend"
       inkscape:collect="always">
      <path
         transform="matrix(-0.8,0,0,-0.8,-10,0)"
         style="fill:#000000;fill-opacity:1;fill-rule:evenodd;stroke:#000000;stroke-width:1pt;stroke-opacity:1"
         d="M 0,0 5,-5 -12.5,0 5,5 0,0 Z"
         id="path4594"
         inkscape:connector-curvature="0" />
    </marker>
    <inkscape:path-effect
       effect="spiro"
       id="path-effect4584"
       is_visible="true" />
    <inkscape:path-effect
       effect="spiro"
       id="path-effect4580"
       is_visible="true" />
    <inkscape:path-effect
       effect="spiro"
       id="path-effect4564"
       is_visible="true" />
    <marker
       inkscape:stockid="Arrow1Lend"
       orient="auto"
       refY="0"
       refX="0"
       id="Arrow1Lend"
       style="overflow:visible"
       inkscape:isstock="true"
       inkscape:collect="always">
      <path
         id="path4173"
         d="M 0,0 5,-5 -12.5,0 5,5 0,0 Z"
         style="fill:#000000;fill-opacity:1;fill-rule:evenodd;stroke:#000000;stroke-width:1pt;stroke-opacity:1"
         transform="matrix(-0.8,0,0,-0.8,-10,0)"
         inkscape:connector-curvature="0" />
    </marker>
    <inkscape:path-effect
       effect="spiro"
       id="path-effect4164"
       is_visible="true" />
    <inkscape:path-effect
       effect="spiro"
       id="path-effect4142"
       is_visible="true" />
    <inkscape:path-effect
       effect="spiro"
       id="path-effect4138"
       is_visible="true" />
    <inkscape:path-effect
       effect="spiro"
       id="path-effect4142-3"
       is_visible="true" />
    <marker
       inkscape:isstock="true"
       style="overflow:visible"
       id="marker5644-3"
       refX="0"
       refY="0"
       orient="auto"
       inkscape:stockid="Arrow1Lend">
      <path
         inkscape:connector-curvature="0"
         transform="matrix(-0.8,0,0,-0.8,-10,0)"
         style="fill:#000000;fill-opacity:1;fill-rule:evenodd;stroke:#000000;stroke-width:1pt;stroke-opacity:1"
         d="M 0,0 5,-5 -12.5,0 5,5 0,0 Z"
         id="path5646-4" />
    </marker>
    <inkscape:path-effect
       effect="spiro"
       id="path-effect4874-0"
       is_visible="true" />
    <inkscape:path-effect
       effect="spiro"
       id="path-effect4874-0-4"
       is_visible="true" />
    <marker
       inkscape:isstock="true"
       style="overflow:visible"
       id="marker5644-0"
       refX="0"
       refY="0"
       orient="auto"
       inkscape:stockid="Arrow1Lend">
      <path
         inkscape:connector-curvature="0"
         transform="matrix(-0.8,0,0,-0.8,-10,0)"
         style="fill:#000000;fill-opacity:1;fill-rule:evenodd;stroke:#000000;stroke-width:1pt;stroke-opacity:1"
         d="M 0,0 5,-5 -12.5,0 5,5 0,0 Z"
         id="path5646-46" />
    </marker>
    <inkscape:path-effect
       effect="spiro"
       id="path-effect4874-2"
       is_visible="true" />
    <inkscape:path-effect
       effect="spiro"
       id="path-effect4874-2-7"
       is_visible="true" />
    <inkscape:path-effect
       effect="spiro"
       id="path-effect6034-6"
       is_visible="true" />
    <inkscape:path-effect
       effect="spiro"
       id="path-effect6038-8"
       is_visible="true" />
    <inkscape:path-effect
       effect="spiro"
       id="path-effect6034-2"
       is_visible="true" />
  </defs>
  <sodipodi:namedview
     id="base"
     pagecolor="#ffffff"
     bordercolor="#666666"
     borderopacity="1.0"
     inkscape:pageopacity="0.0"
     inkscape:pageshadow="2"
     inkscape:zoom="0.78484848"
     inkscape:cx="495"
     inkscape:cy="382.5"
     inkscape:document-units="px"
     inkscape:current-layer="g7017"
     showgrid="false"
     inkscape:window-width="1435"
     inkscape:window-height="1009"
     inkscape:window-x="137"
     inkscape:window-y="15"
     inkscape:window-maximized="0"
     units="in" />
  <metadata
     id="metadata7">
    <rdf:RDF>
      <cc:Work
         rdf:about="">
        <dc:format>image/svg+xml</dc:format>
        <dc:type
           rdf:resource="http://purl.org/dc/dcmitype/StillImage" />
        <dc:title></dc:title>
      </cc:Work>
    </rdf:RDF>
  </metadata>
  <g
     inkscape:label="Layer 1"
     inkscape:groupmode="layer"
     id="layer1"
     transform="translate(0,-287.3622)">
    <g
       id="g7017">
      <path
         inkscape:connector-curvature="0"
         inkscape:original-d="M 68.78989,828.75125 921.21011,427.41696"
         inkscape:path-effect="#path-effect4138"
         id="path4136"
         d="M 68.78989,828.75125 921.21011,427.41696"
         style="fill:none;fill-rule:evenodd;stroke:#000000;stroke-width:1;stroke-linecap:butt;stroke-linejoin:miter;stroke-miterlimit:4;stroke-dasharray:8.00000008, 2.00000001, 1.00000001, 2.00000001;stroke-dashoffset:0;stroke-opacity:1" />
      <path
         inkscape:connector-curvature="0"
         inkscape:original-d="M 157.78515,721.9317 804.76597,417.32183"
         inkscape:path-effect="#path-effect4142"
         id="path4140"
         d="M 157.78515,721.9317 804.76597,417.32183"
         style="fill:none;fill-rule:evenodd;stroke:#000000;stroke-width:1px;stroke-linecap:butt;stroke-linejoin:miter;stroke-opacity:1" />
      <path
         inkscape:connector-curvature="0"
         inkscape:original-d="M 190.18005,846.66591 837.16086,542.05603"
         inkscape:path-effect="#path-effect4142-3"
         id="path4140-6"
         d="M 190.18005,846.66591 837.16086,542.05603"
         style="fill:none;fill-rule:evenodd;stroke:#000000;stroke-width:1px;stroke-linecap:butt;stroke-linejoin:miter;stroke-opacity:1" />
      <path
         inkscape:connector-curvature="0"
         inkscape:original-d="M 372.75016,1028.782 290.37483,726.88761"
         inkscape:path-effect="#path-effect4564"
         id="path4562"
         d="M 372.75016,1028.782 290.37483,726.88761"
         style="fill:none;fill-rule:evenodd;stroke:#000000;stroke-width:1px;stroke-linecap:butt;stroke-linejoin:miter;stroke-opacity:1;marker-end:url(#Arrow1Lend)" />
      <path
         inkscape:connector-curvature="0"
         inkscape:original-d="M 372.33008,1028.2132 357.09322,370.842"
         inkscape:path-effect="#path-effect4584"
         id="path4582"
         d="M 372.33008,1028.2132 357.09322,370.842"
         style="fill:none;fill-rule:evenodd;stroke:#000000;stroke-width:0.99999994px;stroke-linecap:butt;stroke-linejoin:miter;stroke-opacity:1;marker-end:url(#marker4592)" />
      <path
         inkscape:connector-curvature="0"
         inkscape:original-d="M 356.57113,365.45041 784.25427,652.44394"
         inkscape:path-effect="#path-effect4622"
         id="path4620"
         d="M 356.57113,365.45041 784.25427,652.44394"
         style="fill:none;fill-rule:evenodd;stroke:#000000;stroke-width:1px;stroke-linecap:butt;stroke-linejoin:miter;stroke-opacity:1;marker-end:url(#TriangleOutL)" />
      <path
         inkscape:connector-curvature="0"
         inkscape:original-d="M 289.98628,725.46357 501.38316,625.93423"
         inkscape:path-effect="#path-effect4874"
         id="path4872"
         d="M 289.98628,725.46357 501.38316,625.93423"
         style="fill:none;fill-rule:evenodd;stroke:#000000;stroke-width:1px;stroke-linecap:butt;stroke-linejoin:miter;stroke-opacity:1;marker-end:url(#marker5644)" />
      <path
         inkscape:transform-center-y="65.303023"
         inkscape:transform-center-x="-97.145612"
         inkscape:connector-curvature="0"
         inkscape:original-d="M 357.06835,366.22695 553.16639,496.71384"
         inkscape:path-effect="#path-effect5088"
         id="path5086"
         d="M 357.06835,366.22695 553.16639,496.71384"
         style="fill:none;fill-rule:evenodd;stroke:#000000;stroke-width:1px;stroke-linecap:butt;stroke-linejoin:miter;stroke-opacity:1;marker-end:url(#marker5138)" />
      <text
         sodipodi:linespacing="100%"
         id="text6281"
         y="789.14948"
         x="337.60513"
         style="font-style:normal;font-variant:normal;font-weight:normal;font-stretch:normal;font-size:51.34042358px;line-height:100%;font-family:sans-serif;-inkscape-font-specification:'sans-serif, Normal';text-align:start;letter-spacing:0px;word-spacing:0px;writing-mode:lr-tb;text-anchor:start;fill:#000000;fill-opacity:1;stroke:none;stroke-width:1px;stroke-linecap:butt;stroke-linejoin:miter;stroke-opacity:1"
         xml:space="preserve"
         transform="scale(0.87251401,1.1461134)"><tspan
           y="789.14948"
           x="337.60513"
           id="tspan6283"
           sodipodi:role="line">p</tspan></text>
      <text
         sodipodi:linespacing="100%"
         id="text6285"
         y="739.43054"
         x="435.16019"
         style="font-style:normal;font-variant:normal;font-weight:normal;font-stretch:normal;font-size:51.34042358px;line-height:100%;font-family:sans-serif;-inkscape-font-specification:'sans-serif, Normal';text-align:start;letter-spacing:0px;word-spacing:0px;writing-mode:lr-tb;text-anchor:start;fill:#000000;fill-opacity:1;stroke:none;stroke-width:1px;stroke-linecap:butt;stroke-linejoin:miter;stroke-opacity:1"
         xml:space="preserve"
         transform="scale(0.87251401,1.1461134)"><tspan
           y="739.43054"
           x="435.16019"
           id="tspan6287"
           sodipodi:role="line">s</tspan></text>
      <text
         sodipodi:linespacing="100%"
         id="text6289"
         y="561.1076"
         x="481.06027"
         style="font-style:normal;font-variant:normal;font-weight:normal;font-stretch:normal;font-size:51.34042358px;line-height:100%;font-family:sans-serif;-inkscape-font-specification:'sans-serif, Normal';text-align:start;letter-spacing:0px;word-spacing:0px;writing-mode:lr-tb;text-anchor:start;fill:#000000;fill-opacity:1;stroke:none;stroke-width:1px;stroke-linecap:butt;stroke-linejoin:miter;stroke-opacity:1"
         xml:space="preserve"
         transform="scale(0.87251401,1.1461134)"><tspan
           y="561.1076"
           x="481.06027"
           id="tspan6291"
           sodipodi:role="line">a</tspan></text>
      <text
         sodipodi:linespacing="100%"
         id="text6293"
         y="444.8566"
         x="529.87799"
         style="font-style:normal;font-variant:normal;font-weight:normal;font-stretch:normal;font-size:51.34042358px;line-height:100%;font-family:sans-serif;-inkscape-font-specification:'sans-serif, Normal';text-align:start;letter-spacing:0px;word-spacing:0px;writing-mode:lr-tb;text-anchor:start;fill:#000000;fill-opacity:1;stroke:none;stroke-width:1px;stroke-linecap:butt;stroke-linejoin:miter;stroke-opacity:1"
         xml:space="preserve"
         transform="scale(0.87251401,1.1461134)"><tspan
           y="444.8566"
           x="529.87799"
           id="tspan6295"
           sodipodi:role="line">d</tspan></text>
      <path
         inkscape:connector-curvature="0"
         inkscape:original-d="M 372.30351,1028.8556 585.65114,521.98276"
         inkscape:path-effect="#path-effect6303"
         id="path6301"
         d="M 372.30351,1028.8556 585.65114,521.98276"
         style="fill:none;fill-rule:evenodd;stroke:#000000;stroke-width:1px;stroke-linecap:butt;stroke-linejoin:miter;stroke-opacity:1;marker-end:url(#marker6521)" />
      <path
         inkscape:connector-curvature="0"
         inkscape:original-d="M 288.31935,723.83792 356.18132,367.27894"
         inkscape:path-effect="#path-effect6797"
         id="path6795"
         d="M 288.31935,723.83792 356.18132,367.27894"
         style="fill:none;fill-rule:evenodd;stroke:#000000;stroke-width:1px;stroke-linecap:butt;stroke-linejoin:miter;stroke-opacity:1;marker-end:url(#marker6805)" />
      <path
         inkscape:connector-curvature="0"
         inkscape:original-d="M 371.77917,1028.7879 708.27766,604.06311"
         inkscape:path-effect="#path-effect6893"
         id="path6891"
         d="M 371.77917,1028.7879 708.27766,604.06311"
         style="fill:none;fill-rule:evenodd;stroke:#000000;stroke-width:1px;stroke-linecap:butt;stroke-linejoin:miter;stroke-opacity:1;marker-end:url(#marker6901)" />
      <g
         id="g7076"
         transform="matrix(2.5597279,0,0,3.3623971,-330.71567,-959.6745)">
        <text
           xml:space="preserve"
           style="font-style:normal;font-variant:normal;font-weight:normal;font-stretch:normal;font-size:17.5px;line-height:100%;font-family:sans-serif;-inkscape-font-specification:'sans-serif, Normal';text-align:start;letter-spacing:0px;word-spacing:0px;writing-mode:lr-tb;text-anchor:start;fill:#000000;fill-opacity:1;stroke:none;stroke-width:1px;stroke-linecap:butt;stroke-linejoin:miter;stroke-opacity:1"
           x="360.86398"
           y="521.495"
           id="text6989"
           sodipodi:linespacing="100%"><tspan
             sodipodi:role="line"
             id="tspan6991"
             x="360.86398"
             y="521.495">x</tspan></text>
        <text
           xml:space="preserve"
           style="font-style:normal;font-variant:normal;font-weight:normal;font-stretch:normal;font-size:17.5px;line-height:100%;font-family:sans-serif;-inkscape-font-specification:'sans-serif, Normal';text-align:start;letter-spacing:0px;word-spacing:0px;writing-mode:lr-tb;text-anchor:start;fill:#000000;fill-opacity:1;stroke:none;stroke-width:1px;stroke-linecap:butt;stroke-linejoin:miter;stroke-opacity:1"
           x="370.3251"
           y="526.93927"
           id="text6993"
           sodipodi:linespacing="100%"><tspan
             sodipodi:role="line"
             id="tspan6995"
             x="370.3251"
             y="526.93927"
             style="font-style:normal;font-variant:normal;font-weight:normal;font-stretch:normal;font-size:12.5px;line-height:100%;font-family:sans-serif;-inkscape-font-specification:'sans-serif, Normal';text-align:start;writing-mode:lr-tb;text-anchor:start">+</tspan></text>
      </g>
      <g
         id="g7070"
         transform="matrix(2.5597279,0,0,3.3623971,-376.31743,-904.05185)">
        <text
           xml:space="preserve"
           style="font-style:normal;font-variant:normal;font-weight:normal;font-stretch:normal;font-size:17.5px;line-height:100%;font-family:sans-serif;-inkscape-font-specification:'sans-serif, Normal';text-align:start;letter-spacing:0px;word-spacing:0px;writing-mode:lr-tb;text-anchor:start;fill:#000000;fill-opacity:1;stroke:none;stroke-width:1px;stroke-linecap:butt;stroke-linejoin:miter;stroke-opacity:1"
           x="343.03015"
           y="497.8913"
           id="text6297"
           sodipodi:linespacing="100%"><tspan
             sodipodi:role="line"
             id="tspan6299"
             x="343.03015"
             y="497.8913">x</tspan></text>
        <text
           xml:space="preserve"
           style="font-style:normal;font-variant:normal;font-weight:normal;font-stretch:normal;font-size:17.5px;line-height:100%;font-family:sans-serif;-inkscape-font-specification:'sans-serif, Normal';text-align:start;letter-spacing:0px;word-spacing:0px;writing-mode:lr-tb;text-anchor:start;fill:#000000;fill-opacity:1;stroke:none;stroke-width:1px;stroke-linecap:butt;stroke-linejoin:miter;stroke-opacity:1"
           x="354.01251"
           y="503.34882"
           id="text6997"
           sodipodi:linespacing="100%"><tspan
             sodipodi:role="line"
             id="tspan6999"
             x="354.01251"
             y="503.34882"
             style="font-style:normal;font-variant:normal;font-weight:normal;font-stretch:normal;font-size:12.5px;line-height:100%;font-family:sans-serif;-inkscape-font-specification:'sans-serif, Normal';text-align:start;writing-mode:lr-tb;text-anchor:start">-</tspan></text>
      </g>
      <path
         style="fill:none;fill-rule:evenodd;stroke:#000000;stroke-width:1;stroke-linecap:butt;stroke-linejoin:miter;stroke-miterlimit:4;stroke-dasharray:6, 6;stroke-dashoffset:0;stroke-opacity:1"
         d="M 356.49558,366.09474 482.67205,633.9771"
         id="path6032"
         inkscape:path-effect="#path-effect6034"
         inkscape:original-d="M 356.49558,366.09474 482.67205,633.9771"
         inkscape:connector-curvature="0" />
      <path
         style="fill:none;fill-rule:evenodd;stroke:#000000;stroke-width:1;stroke-linecap:butt;stroke-linejoin:miter;stroke-miterlimit:4;stroke-dasharray:6, 6;stroke-dashoffset:0;stroke-opacity:1"
         d="M 356.80496,364.36636 468.74614,311.95459"
         id="path6036"
         inkscape:path-effect="#path-effect6038"
         inkscape:original-d="M 356.80496,364.36636 468.74614,311.95459"
         inkscape:connector-curvature="0" />
      <path
         style="fill:none;fill-rule:evenodd;stroke:#000000;stroke-width:1;stroke-linecap:butt;stroke-linejoin:miter;stroke-miterlimit:4;stroke-dasharray:6, 6;stroke-dashoffset:0;stroke-opacity:1"
         d="M 355.52606,365.12365 163.3594,458.46174"
         id="path6076"
         inkscape:path-effect="#path-effect6078"
         inkscape:original-d="M 355.52606,365.12365 163.3594,458.46174"
         inkscape:connector-curvature="0" />
      <path
         style="fill:none;fill-rule:evenodd;stroke:#000000;stroke-width:1;stroke-linecap:butt;stroke-linejoin:miter;stroke-miterlimit:4;stroke-dasharray:6, 6;stroke-dashoffset:0;stroke-opacity:1"
         d="M 289.64035,725.82191 162.44432,455.8735"
         id="path6084"
         inkscape:path-effect="#path-effect6086"
         inkscape:original-d="M 289.64035,725.82191 162.44432,455.8735"
         inkscape:connector-curvature="0" />
      <path
         style="fill:none;fill-rule:evenodd;stroke:#000000;stroke-width:1;stroke-linecap:butt;stroke-linejoin:miter;stroke-miterlimit:4;stroke-dasharray:6, 6;stroke-dashoffset:0;stroke-opacity:1"
         d="m 469.45344,310.83342 85.10238,186.67619"
         id="path6106"
         inkscape:path-effect="#path-effect6108"
         inkscape:original-d="m 469.45344,310.83342 85.10238,186.67619"
         inkscape:connector-curvature="0" />
      <text
         sodipodi:linespacing="100%"
         id="text6289-2"
         y="486.72385"
         x="326.59259"
         style="font-style:normal;font-variant:normal;font-weight:normal;font-stretch:normal;font-size:51.34042358px;line-height:100%;font-family:sans-serif;-inkscape-font-specification:'sans-serif, Normal';text-align:start;letter-spacing:0px;word-spacing:0px;writing-mode:lr-tb;text-anchor:start;fill:#000000;fill-opacity:1;stroke:none;stroke-width:1px;stroke-linecap:butt;stroke-linejoin:miter;stroke-opacity:1"
         xml:space="preserve"
         transform="scale(0.87251401,1.1461134)"><tspan
           y="486.72385"
           x="326.59259"
           id="tspan6291-9"
           sodipodi:role="line">r</tspan></text>
      <g
         id="g6188"
         transform="translate(111.26028,123.20313)">
        <text
           transform="scale(0.87251401,1.1461134)"
           xml:space="preserve"
           style="font-style:normal;font-variant:normal;font-weight:normal;font-stretch:normal;font-size:51.34042358px;line-height:100%;font-family:sans-serif;-inkscape-font-specification:'sans-serif, Normal';text-align:start;letter-spacing:0px;word-spacing:0px;writing-mode:lr-tb;text-anchor:start;fill:#000000;fill-opacity:1;stroke:none;stroke-width:1px;stroke-linecap:butt;stroke-linejoin:miter;stroke-opacity:1"
           x="333.61246"
           y="231.02077"
           id="text6289-0"
           sodipodi:linespacing="100%"><tspan
             sodipodi:role="line"
             id="tspan6291-2"
             x="333.61246"
             y="231.02077">d a</tspan></text>
        <text
           transform="scale(0.87251401,1.1461134)"
           xml:space="preserve"
           style="font-style:normal;font-variant:normal;font-weight:normal;font-stretch:normal;font-size:51.34042358px;line-height:100%;font-family:sans-serif;-inkscape-font-specification:'sans-serif, Normal';text-align:start;letter-spacing:0px;word-spacing:0px;writing-mode:lr-tb;text-anchor:start;fill:#000000;fill-opacity:1;stroke:none;stroke-width:1px;stroke-linecap:butt;stroke-linejoin:miter;stroke-opacity:1"
           x="365.80426"
           y="220.3394"
           id="text6293-7"
           sodipodi:linespacing="100%"><tspan
             sodipodi:role="line"
             id="tspan6295-6"
             x="365.80426"
             y="220.3394">.</tspan></text>
      </g>
      <g
         id="g6194"
         transform="translate(56.260284,80.497248)">
        <text
           transform="scale(0.87251401,1.1461134)"
           xml:space="preserve"
           style="font-style:normal;font-variant:normal;font-weight:normal;font-stretch:normal;font-size:51.34042358px;line-height:100%;font-family:sans-serif;-inkscape-font-specification:'sans-serif, Normal';text-align:start;letter-spacing:0px;word-spacing:0px;writing-mode:lr-tb;text-anchor:start;fill:#000000;fill-opacity:1;stroke:none;stroke-width:1px;stroke-linecap:butt;stroke-linejoin:miter;stroke-opacity:1"
           x="203.09035"
           y="333.77213"
           id="text6289-9"
           sodipodi:linespacing="100%"><tspan
             sodipodi:role="line"
             id="tspan6291-6"
             x="203.09035"
             y="333.77213">r a</tspan></text>
        <text
           transform="scale(0.87251401,1.1461134)"
           xml:space="preserve"
           style="font-style:normal;font-variant:normal;font-weight:normal;font-stretch:normal;font-size:51.34042358px;line-height:100%;font-family:sans-serif;-inkscape-font-specification:'sans-serif, Normal';text-align:start;letter-spacing:0px;word-spacing:0px;writing-mode:lr-tb;text-anchor:start;fill:#000000;fill-opacity:1;stroke:none;stroke-width:1px;stroke-linecap:butt;stroke-linejoin:miter;stroke-opacity:1"
           x="225.47014"
           y="322.37796"
           id="text6293-7-1"
           sodipodi:linespacing="100%"><tspan
             sodipodi:role="line"
             id="tspan6295-6-3"
             x="225.47014"
             y="322.37796">.</tspan></text>
      </g>
      <path
         style="fill:none;fill-rule:evenodd;stroke:#000000;stroke-width:1px;stroke-linecap:butt;stroke-linejoin:miter;stroke-opacity:1;marker-end:url(#Arrow1Mend);marker-start:url(#Arrow1Mstart)"
         d="M 739.56289,512.03097 715.64435,461.2129"
         id="path4421"
         inkscape:path-effect="#path-effect4423"
         inkscape:original-d="M 739.56289,512.03097 715.64435,461.2129"
         inkscape:connector-curvature="0" />
      <g
         id="g4988">
        <text
           sodipodi:linespacing="100%"
           id="text4984"
           y="480.03867"
           x="731.17645"
           style="font-style:normal;font-variant:normal;font-weight:normal;font-stretch:normal;font-size:17.5px;line-height:100%;font-family:sans-serif;-inkscape-font-specification:'sans-serif, Normal';text-align:start;letter-spacing:0px;word-spacing:0px;writing-mode:lr-tb;text-anchor:start;fill:#000000;fill-opacity:1;stroke:none;stroke-width:1px;stroke-linecap:butt;stroke-linejoin:miter;stroke-opacity:1"
           xml:space="preserve"><tspan
             sodipodi:role="line"
             id="tspan4996"
             x="731.17645"
             y="480.03867" /></text>
      </g>
      <path
         style="fill:none;fill-rule:evenodd;stroke:#000000;stroke-width:4;stroke-linecap:butt;stroke-linejoin:miter;stroke-opacity:1;stroke-miterlimit:4;stroke-dasharray:none"
         d="m 735.25,480.6122 c -0.0259,0.16935 0.0331,0.34959 0.15426,0.47074 0.12115,0.12114 0.30139,0.18021 0.47074,0.15426 0.0209,-0.003 0.0417,-0.008 0.0628,-0.009 0.0211,-0.001 0.0429,3.6e-4 0.0622,0.009 0.0135,0.006 0.0254,0.0153 0.036,0.0257 0.0106,0.0103 0.0201,0.0218 0.0295,0.0332 0.0188,0.0229 0.0385,0.0451 0.0595,0.0661 l 0.125,0.125 c 0.0212,0.0212 0.0402,0.0446 0.0575,0.0691 0.009,0.0122 0.0175,0.0245 0.0284,0.0349 0.0109,0.0104 0.0242,0.0188 0.039,0.0211 0.0109,0.002 0.022,-3e-5 0.0327,-0.003 0.0106,-0.003 0.021,-0.007 0.0316,-0.01 0.0106,-0.003 0.0217,-0.005 0.0326,-0.003 0.005,7.6e-4 0.0108,0.002 0.0157,0.005 0.005,0.003 0.009,0.006 0.0124,0.0107 0.003,0.004 0.005,0.01 0.006,0.015 0.001,0.005 0.001,0.0109 3.7e-4,0.0163 -0.001,0.0109 -0.005,0.0212 -0.009,0.0315 -0.004,0.0103 -0.007,0.0208 -0.008,0.0318 -2.5e-4,0.005 2.6e-4,0.011 0.002,0.0162 0.002,0.005 0.004,0.0102 0.008,0.0141 0.004,0.004 0.008,0.007 0.0135,0.008 0.005,0.002 0.0104,0.003 0.0158,0.003 0.0107,3.7e-4 0.0214,-0.002 0.0319,-0.004 0.021,-0.004 0.0423,-0.007 0.0638,-0.007 l 0.125,0 c 0.0215,0 0.0429,-0.003 0.0639,-0.008 0.0105,-0.002 0.0212,-0.005 0.0319,-0.004 0.005,2e-4 0.0107,0.001 0.0158,0.003 0.005,0.002 0.01,0.005 0.0134,0.009 0.004,0.004 0.006,0.009 0.008,0.0144 0.001,0.005 0.002,0.0109 0.001,0.0164 -9.7e-4,0.011 -0.005,0.0214 -0.009,0.0317 -0.004,0.0103 -0.008,0.0207 -0.009,0.0317 -4.9e-4,0.005 -2.1e-4,0.0111 0.001,0.0164 0.001,0.005 0.004,0.0104 0.008,0.0144 0.004,0.004 0.008,0.007 0.0134,0.009 0.005,0.002 0.0104,0.003 0.0158,0.003 0.0108,3.8e-4 0.0214,-0.002 0.0319,-0.004 0.021,-0.005 0.0424,-0.008 0.0639,-0.008 l 0.125,0 c 0.0209,0 0.0418,-8e-4 0.0626,-0.002 0.0208,-0.001 0.0421,-0.003 0.0624,0.002 0.0299,0.007 0.0553,0.0272 0.0744,0.0511 0.0192,0.0239 0.0329,0.0516 0.047,0.0788 0.0141,0.0272 0.0289,0.0545 0.0496,0.0771 0.0208,0.0225 0.0484,0.0402 0.0789,0.043 0.0233,0.002 0.0465,-0.004 0.0682,-0.0129 0.0217,-0.009 0.0425,-0.0196 0.0646,-0.0271 0.0221,-0.008 0.0462,-0.0115 0.0689,-0.006 0.0113,0.003 0.0221,0.008 0.0307,0.0161 0.009,0.008 0.0151,0.0183 0.0176,0.0297 0.002,0.0107 0.001,0.0218 -0.001,0.0324 -0.002,0.0106 -0.006,0.0209 -0.009,0.0315 -0.003,0.0105 -0.005,0.0215 -0.004,0.0323 0.001,0.0109 0.006,0.0217 0.0138,0.0288 0.008,0.007 0.0191,0.01 0.0297,0.0101 0.0107,3.1e-4 0.0213,-0.002 0.0317,-0.004 0.021,-0.004 0.0422,-0.006 0.0635,-0.006 l 0.25,0 1.875,0 0.75,0 0.125,0 c 0.021,0 0.0419,0.001 0.0628,0.003 0.0209,0.002 0.0426,0.004 0.0622,-0.003 0.0141,-0.005 0.0262,-0.0149 0.0362,-0.0262 0.01,-0.0113 0.0179,-0.0241 0.026,-0.0368 0.008,-0.0127 0.0161,-0.0255 0.0262,-0.0366 0.0101,-0.0111 0.0224,-0.0206 0.0367,-0.0254 0.02,-0.007 0.0417,-0.003 0.0625,-1.1e-4 0.0208,0.003 0.0425,0.007 0.0625,1.1e-4 0.0143,-0.005 0.0267,-0.014 0.0369,-0.025 0.0102,-0.011 0.0184,-0.0237 0.0265,-0.0364 0.008,-0.0127 0.0161,-0.0255 0.0259,-0.0368 0.01,-0.0113 0.0217,-0.0213 0.0357,-0.0268 0.0214,-0.008 0.0457,-0.006 0.0675,0.001 0.0219,0.007 0.0422,0.018 0.0635,0.0267 0.0213,0.009 0.0443,0.015 0.0671,0.0118 0.0114,-0.002 0.0225,-0.006 0.0318,-0.0124 0.009,-0.007 0.0167,-0.0163 0.0201,-0.0273 0.003,-0.0103 0.003,-0.0214 10e-4,-0.0321 -0.002,-0.0106 -0.005,-0.0209 -0.008,-0.0314 -0.003,-0.0104 -0.005,-0.0212 -0.004,-0.0319 5.4e-4,-0.0108 0.004,-0.0217 0.0114,-0.0296 0.007,-0.008 0.0182,-0.0122 0.029,-0.0133 0.0108,-0.001 0.0217,6.5e-4 0.0323,0.003 0.0105,0.003 0.0209,0.006 0.0315,0.008 0.0106,0.002 0.0216,0.004 0.0323,0.002 0.0148,-0.003 0.0279,-0.0112 0.0388,-0.0215 0.0109,-0.0103 0.0198,-0.0225 0.0285,-0.0347 0.0175,-0.0243 0.0365,-0.0476 0.0577,-0.0688 l 0.375,-0.375 0.125,-0.125 c 0.0211,-0.0211 0.0404,-0.0438 0.0586,-0.0674 0.009,-0.0118 0.0183,-0.0236 0.029,-0.034 0.0107,-0.0103 0.0232,-0.0192 0.0374,-0.0237 0.0201,-0.006 0.0417,-0.003 0.0625,0 0.0208,0.003 0.0424,0.006 0.0625,0 0.0142,-0.004 0.0267,-0.0133 0.0374,-0.0237 0.0107,-0.0103 0.0199,-0.0221 0.029,-0.034 0.0182,-0.0236 0.0375,-0.0463 0.0586,-0.0674 l 0.125,-0.125 0.125,-0.125 c 0.0212,-0.0212 0.0402,-0.0446 0.0576,-0.069 0.009,-0.0122 0.0176,-0.0245 0.0284,-0.0348 0.0109,-0.0103 0.0242,-0.0188 0.039,-0.0212 0.0108,-0.002 0.022,-1.3e-4 0.0326,0.003 0.0106,0.003 0.021,0.007 0.0316,0.009 0.0106,0.003 0.0217,0.005 0.0326,0.003 0.0109,-0.001 0.0216,-0.006 0.0283,-0.0151 0.007,-0.009 0.009,-0.0201 0.008,-0.0309 -8.9e-4,-0.0108 -0.004,-0.0213 -0.008,-0.0316 -0.003,-0.0103 -0.007,-0.0207 -0.008,-0.0316 -8.3e-4,-0.0108 0.001,-0.0223 0.008,-0.0309 0.007,-0.009 0.0175,-0.0135 0.0284,-0.0148 0.0109,-0.001 0.0219,6e-4 0.0325,0.003 0.0106,0.003 0.0209,0.007 0.0315,0.009 0.0106,0.003 0.0218,0.004 0.0326,0.002 0.0136,-0.003 0.0259,-0.0107 0.0341,-0.0218 0.008,-0.0111 0.0121,-0.0252 0.0116,-0.039 -5.7e-4,-0.0138 -0.006,-0.0273 -0.0137,-0.0385 -0.008,-0.0112 -0.0194,-0.02 -0.0319,-0.0257 -0.0124,-0.006 -0.0262,-0.009 -0.0399,-0.008 -0.0137,5.6e-4 -0.0272,0.004 -0.039,0.0115 -0.0118,0.007 -0.0217,0.017 -0.0286,0.0288 -0.007,0.0118 -0.0105,0.0255 -0.0104,0.0392 1.2e-4,0.0137 0.004,0.0273 0.0113,0.0389 0.007,0.0116 0.0179,0.021 0.0303,0.0268 0.0124,0.006 0.0265,0.008 0.04,0.006 0.0135,-0.002 0.0264,-0.008 0.0362,-0.018 0.0156,-0.0151 0.0229,-0.0373 0.0236,-0.059 7.5e-4,-0.0217 -0.004,-0.0432 -0.0107,-0.064 -0.006,-0.0208 -0.0136,-0.0414 -0.0174,-0.0628 -0.004,-0.0214 -0.004,-0.044 0.004,-0.0642 0.006,-0.0138 0.0147,-0.0258 0.0251,-0.0365 0.0103,-0.0106 0.0219,-0.02 0.0335,-0.0293 0.0231,-0.0186 0.0455,-0.0382 0.0665,-0.0592 l 0.125,-0.125 c 0.0211,-0.0211 0.0404,-0.0438 0.0585,-0.0675 0.009,-0.0118 0.0182,-0.0237 0.029,-0.034 0.0107,-0.0103 0.0232,-0.0192 0.0375,-0.0236 0.0201,-0.006 0.0418,-0.003 0.0625,5.5e-4 0.0208,0.003 0.0426,0.006 0.0625,-5.5e-4 0.0129,-0.004 0.0244,-0.013 0.0323,-0.0241 0.008,-0.0111 0.0123,-0.0247 0.0123,-0.0384 0,-0.0137 -0.004,-0.0273 -0.0123,-0.0384 -0.008,-0.0111 -0.0194,-0.0197 -0.0323,-0.0241 0.005,-0.0956 0.0518,-0.18826 0.125,-0.25 0.0466,-0.0393 0.10264,-0.0659 0.15168,-0.1022 0.0245,-0.0181 0.0474,-0.0389 0.0652,-0.0636 0.0178,-0.0248 0.0304,-0.0538 0.0331,-0.0842 0.002,-0.0208 -0.001,-0.0418 -0.003,-0.0626 -0.002,-0.0208 -0.003,-0.0422 0.003,-0.0624 0.008,-0.0299 0.0304,-0.0544 0.0558,-0.0723 0.0253,-0.0179 0.0541,-0.0302 0.0821,-0.0437 0.028,-0.0134 0.0559,-0.0285 0.0776,-0.0506 0.0109,-0.0111 0.0201,-0.0238 0.0264,-0.0381 0.006,-0.0142 0.009,-0.0299 0.008,-0.0454 -0.002,-0.0222 -0.0124,-0.0427 -0.0171,-0.0645 -0.002,-0.0109 -0.003,-0.0223 -7.8e-4,-0.0332 0.002,-0.0109 0.009,-0.0212 0.0179,-0.0273 0.009,-0.006 0.0205,-0.007 0.0312,-0.006 0.0108,0.001 0.0212,0.005 0.0315,0.008 0.0103,0.003 0.0208,0.007 0.0316,0.007 0.0108,5.6e-4 0.0222,-0.002 0.0306,-0.009 0.009,-0.007 0.0134,-0.0176 0.0147,-0.0284 0.001,-0.0109 -4.5e-4,-0.0219 -0.003,-0.0325 -0.003,-0.0106 -0.007,-0.0209 -0.009,-0.0315 -0.003,-0.0106 -0.004,-0.0217 -0.002,-0.0325 0.002,-0.015 0.0111,-0.0284 0.022,-0.0389 0.0109,-0.0106 0.024,-0.0186 0.0371,-0.0262 0.0131,-0.008 0.0265,-0.0149 0.0384,-0.0244 0.0118,-0.009 0.0223,-0.0213 0.0276,-0.0355 0.004,-0.01 0.005,-0.0206 0.004,-0.0311 -3.2e-4,-0.0105 -0.002,-0.021 -0.004,-0.0314 -0.003,-0.0208 -0.007,-0.0425 -6.9e-4,-0.0626 0.005,-0.0143 0.0142,-0.0267 0.0254,-0.0367 0.0112,-0.0101 0.0241,-0.0181 0.0369,-0.026 0.0128,-0.008 0.0257,-0.0159 0.037,-0.0259 0.0113,-0.01 0.021,-0.0222 0.0258,-0.0365 0.007,-0.0199 0.004,-0.0417 1.6e-4,-0.0625 -0.003,-0.0208 -0.007,-0.0425 -1.6e-4,-0.0625 0.005,-0.0143 0.0142,-0.0266 0.0253,-0.0367 0.0111,-0.0101 0.0239,-0.0182 0.0366,-0.0262 0.0127,-0.008 0.0256,-0.016 0.0369,-0.0259 0.0113,-0.01 0.0211,-0.022 0.0262,-0.0361 0.007,-0.0197 0.005,-0.0414 0.003,-0.0622 -0.002,-0.0209 -0.003,-0.0418 -0.003,-0.0628 l 0,-0.25 0,-0.75 0,-0.875 c 0,-0.0215 0.003,-0.0429 0.008,-0.0639 0.002,-0.0105 0.005,-0.0212 0.004,-0.0319 -2e-4,-0.005 -0.001,-0.0107 -0.003,-0.0158 -0.002,-0.005 -0.005,-0.01 -0.009,-0.0134 -0.004,-0.004 -0.009,-0.006 -0.0144,-0.008 -0.005,-0.001 -0.0109,-0.002 -0.0164,-0.001 -0.011,9.7e-4 -0.0214,0.005 -0.0317,0.009 -0.0103,0.004 -0.0207,0.008 -0.0317,0.009 -0.005,4.9e-4 -0.0111,2.1e-4 -0.0164,-0.001 -0.005,-0.001 -0.0104,-0.004 -0.0144,-0.008 -0.004,-0.004 -0.007,-0.008 -0.009,-0.0134 -0.002,-0.005 -0.003,-0.0104 -0.003,-0.0158 -3.8e-4,-0.0107 0.002,-0.0214 0.004,-0.0319 0.005,-0.021 0.008,-0.0424 0.008,-0.0639 l 0,-0.125 c 0,-0.0209 0.001,-0.0419 0.003,-0.0627 0.002,-0.0209 0.004,-0.0425 -0.003,-0.0623 -0.005,-0.0141 -0.0147,-0.0263 -0.0259,-0.0363 -0.0112,-0.01 -0.0239,-0.0181 -0.0366,-0.0262 -0.0127,-0.008 -0.0254,-0.0162 -0.0366,-0.0262 -0.0112,-0.01 -0.0208,-0.0222 -0.0259,-0.0363 -0.007,-0.0197 -0.005,-0.0414 -0.003,-0.0623 0.002,-0.0209 0.003,-0.0418 0.003,-0.0627 l 0,-0.125 c 0,-0.0209 0.001,-0.0419 0.003,-0.0627 0.002,-0.0209 0.004,-0.0425 -0.003,-0.0623 -0.005,-0.0141 -0.0147,-0.0263 -0.0259,-0.0363 -0.0112,-0.01 -0.0239,-0.0181 -0.0366,-0.0262 -0.0127,-0.008 -0.0254,-0.0162 -0.0366,-0.0262 -0.0112,-0.01 -0.0208,-0.0222 -0.0259,-0.0363 -0.007,-0.0197 -0.005,-0.0414 -0.003,-0.0623 0.002,-0.0209 0.003,-0.0418 0.003,-0.0627 l 0,-0.125 c 0,-0.021 0.001,-0.0419 0.003,-0.0627 0.002,-0.0209 0.004,-0.0426 -0.003,-0.0623 -0.005,-0.0141 -0.0149,-0.0262 -0.0262,-0.0361 -0.0113,-0.01 -0.0241,-0.0179 -0.0368,-0.0259 -0.0127,-0.008 -0.0255,-0.0161 -0.0366,-0.0262 -0.0111,-0.0101 -0.0206,-0.0224 -0.0253,-0.0367 -0.007,-0.02 -0.003,-0.0417 8e-5,-0.0625 0.003,-0.0208 0.007,-0.0425 -8e-5,-0.0625 -0.005,-0.0143 -0.0144,-0.0265 -0.0256,-0.0366 -0.0112,-0.0101 -0.024,-0.0181 -0.0368,-0.026 -0.0128,-0.008 -0.0256,-0.016 -0.0368,-0.026 -0.0112,-0.01 -0.0209,-0.0222 -0.0258,-0.0364 -0.007,-0.0199 -0.004,-0.0417 -5.7e-4,-0.0625 0.003,-0.0208 0.007,-0.0424 5.7e-4,-0.0625 -0.004,-0.0143 -0.0132,-0.0268 -0.0235,-0.0375 -0.0103,-0.0107 -0.0222,-0.0199 -0.034,-0.029 -0.0237,-0.0181 -0.0464,-0.0375 -0.0675,-0.0585 l -0.125,-0.125 c -0.0211,-0.0211 -0.0438,-0.0404 -0.0674,-0.0586 -0.0118,-0.009 -0.0236,-0.0183 -0.034,-0.029 -0.0103,-0.0107 -0.0192,-0.0232 -0.0237,-0.0374 -0.006,-0.0201 -0.003,-0.0417 0,-0.0625 0.003,-0.0208 0.006,-0.0424 0,-0.0625 -0.004,-0.0142 -0.0133,-0.0267 -0.0237,-0.0374 -0.0103,-0.0107 -0.0221,-0.0199 -0.034,-0.029 -0.0236,-0.0182 -0.0463,-0.0375 -0.0674,-0.0586 l -0.125,-0.125 -0.5,-0.5 c -0.0212,-0.0212 -0.0444,-0.0402 -0.0687,-0.0578 -0.0121,-0.009 -0.0243,-0.0177 -0.0346,-0.0286 -0.0103,-0.0108 -0.0189,-0.024 -0.0217,-0.0387 -0.002,-0.0106 -9.3e-4,-0.0216 0.001,-0.0322 0.002,-0.0106 0.006,-0.0209 0.008,-0.0314 0.003,-0.0105 0.004,-0.0214 0.003,-0.0322 -0.001,-0.0108 -0.005,-0.0215 -0.0127,-0.0292 -0.008,-0.008 -0.0184,-0.0116 -0.0292,-0.0126 -0.0108,-0.001 -0.0216,7.4e-4 -0.0322,0.003 -0.0105,0.003 -0.0208,0.006 -0.0314,0.008 -0.0106,0.002 -0.0216,0.003 -0.0322,0.001 -0.0147,-0.003 -0.0278,-0.0113 -0.0387,-0.0217 -0.0109,-0.0103 -0.0198,-0.0225 -0.0285,-0.0346 -0.0176,-0.0243 -0.0366,-0.0475 -0.0578,-0.0687 l -0.125,-0.125 c -0.0212,-0.0212 -0.0402,-0.0444 -0.0578,-0.0686 -0.009,-0.0121 -0.0177,-0.0242 -0.0286,-0.0346 -0.0108,-0.0103 -0.0239,-0.0189 -0.0386,-0.0218 -0.0106,-0.002 -0.0216,-0.001 -0.0321,9.4e-4 -0.0106,0.002 -0.0209,0.005 -0.0314,0.008 -0.0105,0.002 -0.0213,0.004 -0.032,0.003 -0.0108,-9.1e-4 -0.0215,-0.005 -0.0294,-0.012 -0.008,-0.007 -0.0125,-0.018 -0.014,-0.0288 -0.001,-0.0108 -1.6e-4,-0.0217 0.002,-0.0324 0.005,-0.0212 0.0133,-0.0422 0.0118,-0.0639 -8.9e-4,-0.0124 -0.005,-0.0245 -0.0118,-0.035 -0.007,-0.0105 -0.0155,-0.0196 -0.0256,-0.0269 -0.0202,-0.0146 -0.0446,-0.0223 -0.069,-0.0269 -0.0245,-0.005 -0.0494,-0.006 -0.0739,-0.0108 -0.0245,-0.004 -0.0491,-0.0114 -0.0697,-0.0253 -0.0246,-0.0166 -0.042,-0.0418 -0.0599,-0.0655 -0.0179,-0.0238 -0.0379,-0.0476 -0.0651,-0.0595 -0.0195,-0.009 -0.0415,-0.0103 -0.0627,-0.008 -0.0212,0.002 -0.042,0.007 -0.0627,0.0119 -0.0207,0.005 -0.0417,0.01 -0.063,0.0102 -0.0213,6.2e-4 -0.0431,-0.003 -0.0616,-0.0137 -0.013,-0.007 -0.0238,-0.0182 -0.0332,-0.0299 -0.009,-0.0117 -0.0174,-0.0243 -0.0258,-0.0368 -0.008,-0.0124 -0.0172,-0.0246 -0.028,-0.0351 -0.0107,-0.0104 -0.0235,-0.0191 -0.0379,-0.0233 -0.0202,-0.006 -0.0418,-0.002 -0.0625,7e-4 -0.0208,0.003 -0.0425,0.006 -0.0625,-7e-4 -0.0142,-0.005 -0.0265,-0.0143 -0.0367,-0.0253 -0.0102,-0.0111 -0.0183,-0.0238 -0.0264,-0.0364 -0.008,-0.0127 -0.0161,-0.0254 -0.026,-0.0367 -0.01,-0.0113 -0.0219,-0.0211 -0.0359,-0.0265 -0.0196,-0.008 -0.0415,-0.006 -0.0623,-0.003 -0.0208,0.003 -0.042,0.007 -0.0627,0.003 -0.0154,-0.003 -0.0299,-0.009 -0.0426,-0.0183 -0.0127,-0.009 -0.0236,-0.0205 -0.0329,-0.033 -0.0186,-0.0251 -0.0307,-0.0542 -0.0434,-0.0826 -0.0128,-0.0284 -0.0268,-0.057 -0.0482,-0.0796 -0.0107,-0.0113 -0.0233,-0.021 -0.0374,-0.0276 -0.0141,-0.007 -0.0299,-0.01 -0.0454,-0.009 -0.0223,0.002 -0.0428,0.0125 -0.0646,0.0174 -0.0109,0.002 -0.0224,0.003 -0.0333,8.5e-4 -0.0109,-0.003 -0.0212,-0.009 -0.0271,-0.0183 -0.006,-0.009 -0.007,-0.0208 -0.005,-0.0316 0.002,-0.0108 0.005,-0.0211 0.009,-0.0315 0.004,-0.0103 0.007,-0.0209 0.007,-0.0318 1.2e-4,-0.005 -5.3e-4,-0.011 -0.002,-0.0161 -0.002,-0.005 -0.005,-0.01 -0.008,-0.0139 -0.004,-0.004 -0.009,-0.007 -0.0136,-0.008 -0.005,-0.002 -0.0104,-0.003 -0.0158,-0.003 -0.0107,-3.6e-4 -0.0214,0.002 -0.0319,0.004 -0.021,0.004 -0.0423,0.007 -0.0638,0.007 l -0.25,0 c -0.0209,0 -0.0418,0.001 -0.0627,0.003 -0.0208,0.002 -0.0424,0.004 -0.0623,-0.003 -0.0142,-0.005 -0.0267,-0.0136 -0.0373,-0.0242 -0.0106,-0.0106 -0.0194,-0.0228 -0.0278,-0.0351 -0.008,-0.0123 -0.0166,-0.0249 -0.0262,-0.0364 -0.01,-0.0115 -0.0206,-0.022 -0.0337,-0.0292 -0.0187,-0.0103 -0.0406,-0.0135 -0.0619,-0.0125 -0.0213,9.9e-4 -0.0422,0.006 -0.0629,0.011 -0.0207,0.005 -0.0415,0.0102 -0.0628,0.0117 -0.0213,0.002 -0.0433,-8.3e-4 -0.0624,-0.0102 -0.0267,-0.0131 -0.0452,-0.0383 -0.0625,-0.0625 -0.0173,-0.0242 -0.0358,-0.0494 -0.0625,-0.0625 -0.0191,-0.009 -0.0411,-0.0117 -0.0624,-0.0102 -0.0213,0.002 -0.0421,0.007 -0.0628,0.0117 -0.0207,0.005 -0.0416,0.01 -0.0629,0.011 -0.0213,10e-4 -0.0432,-0.002 -0.0619,-0.0125 -0.0131,-0.007 -0.0241,-0.0177 -0.0337,-0.0292 -0.01,-0.0115 -0.0177,-0.0241 -0.0262,-0.0364 -0.008,-0.0124 -0.0172,-0.0246 -0.0278,-0.0351 -0.0106,-0.0106 -0.0231,-0.0195 -0.0373,-0.0242 -0.0199,-0.007 -0.0414,-0.005 -0.0623,-0.003 -0.0209,0.002 -0.0418,0.003 -0.0627,0.003 l -0.125,0 -0.5,0 -0.75,0 c -0.0213,0 -0.0426,-0.003 -0.0635,-0.007 -0.0105,-0.002 -0.0211,-0.004 -0.0317,-0.004 -0.0107,3.1e-4 -0.0217,0.003 -0.0297,0.0102 -0.008,0.007 -0.0126,0.018 -0.0135,0.0289 -9.8e-4,0.0109 0.001,0.0218 0.004,0.0323 0.003,0.0105 0.007,0.0208 0.009,0.0315 0.002,0.0106 0.003,0.0218 6.9e-4,0.0324 -0.003,0.0113 -0.01,0.0214 -0.0185,0.0288 -0.009,0.007 -0.0198,0.0123 -0.0312,0.0146 -0.0227,0.005 -0.0464,-3.8e-4 -0.0681,-0.008 -0.0217,-0.008 -0.0423,-0.0192 -0.064,-0.0271 -0.0218,-0.008 -0.0455,-0.0128 -0.0682,-0.008 -0.0147,0.003 -0.0283,0.0106 -0.0401,0.02 -0.0118,0.009 -0.0219,0.0207 -0.031,0.0327 -0.0183,0.024 -0.0331,0.0506 -0.0539,0.0723 -0.0322,0.0336 -0.0785,0.0533 -0.125,0.0533 -0.0465,0 -0.0928,-0.0197 -0.125,-0.0533 -0.0956,0.005 -0.18824,0.0518 -0.25,0.125 -0.0193,0.0228 -0.0356,0.048 -0.0548,0.0709 -0.0193,0.0228 -0.0422,0.0436 -0.0702,0.0541 -0.0198,0.007 -0.0412,0.009 -0.0623,0.009 -0.0211,-9.3e-4 -0.0419,-0.005 -0.0627,-0.008 -0.0208,-0.004 -0.0416,-0.008 -0.0627,-0.008 -0.0211,-9.5e-4 -0.0426,0.001 -0.0623,0.008 -0.0286,0.0107 -0.052,0.0323 -0.0704,0.0567 -0.0184,0.0244 -0.0322,0.0518 -0.047,0.0785 -0.0147,0.0267 -0.0307,0.0532 -0.0524,0.0748 -0.0217,0.0215 -0.0498,0.0378 -0.0802,0.04 -0.0232,0.002 -0.0463,-0.005 -0.0679,-0.0134 -0.0216,-0.009 -0.0425,-0.0193 -0.0646,-0.0265 -0.0221,-0.007 -0.0462,-0.011 -0.0687,-0.005 -0.0113,0.003 -0.022,0.008 -0.0307,0.0159 -0.009,0.008 -0.0153,0.018 -0.0181,0.0293 -0.003,0.0105 -0.002,0.0215 1.8e-4,0.0322 0.002,0.0106 0.005,0.0209 0.008,0.0314 0.003,0.0105 0.005,0.0213 0.004,0.032 -7.8e-4,0.0108 -0.005,0.0216 -0.012,0.0294 -0.008,0.008 -0.0182,0.012 -0.029,0.0131 -0.0108,0.001 -0.0217,-5.9e-4 -0.0322,-0.003 -0.0105,-0.003 -0.0209,-0.006 -0.0315,-0.008 -0.0106,-0.002 -0.0216,-0.004 -0.0323,-0.002 -0.0123,0.002 -0.0238,0.008 -0.0331,0.0168 -0.009,0.008 -0.0163,0.0192 -0.0213,0.0306 -0.01,0.023 -0.012,0.0485 -0.0132,0.0735 -0.001,0.025 -0.002,0.0505 -0.01,0.0742 -0.004,0.0119 -0.01,0.0233 -0.0176,0.033 -0.008,0.01 -0.0182,0.0176 -0.03,0.0219 -0.01,0.004 -0.0206,0.005 -0.0311,0.004 -0.0105,-3.3e-4 -0.021,-0.002 -0.0313,-0.004 -0.0208,-0.003 -0.0425,-0.007 -0.0625,-6.3e-4 -0.0143,0.005 -0.0266,0.0142 -0.0367,0.0254 -0.01,0.0112 -0.0181,0.0241 -0.026,0.0369 -0.008,0.0128 -0.0159,0.0257 -0.0259,0.037 -0.01,0.0113 -0.0222,0.0209 -0.0365,0.0257 -0.0199,0.007 -0.0417,0.003 -0.0625,8e-5 -0.0208,-0.003 -0.0425,-0.007 -0.0625,-8e-5 -0.0143,0.005 -0.0266,0.0143 -0.0366,0.0255 -0.01,0.0112 -0.0181,0.024 -0.026,0.0368 -0.008,0.0128 -0.016,0.0256 -0.0259,0.0369 -0.01,0.0113 -0.0222,0.0209 -0.0364,0.0258 -0.0199,0.007 -0.0417,0.004 -0.0625,5.8e-4 -0.0208,-0.003 -0.0424,-0.007 -0.0625,-5.8e-4 -0.0143,0.004 -0.0268,0.0132 -0.0375,0.0235 -0.0107,0.0103 -0.0199,0.0222 -0.029,0.034 -0.0181,0.0237 -0.0375,0.0464 -0.0585,0.0675 l -0.125,0.125 c -0.0209,0.0209 -0.0426,0.041 -0.0647,0.0605 -0.0221,0.0195 -0.0447,0.0394 -0.0603,0.0645 -0.0129,0.0206 -0.0204,0.0442 -0.0258,0.0679 -0.005,0.0237 -0.009,0.0478 -0.0149,0.0714 -0.006,0.0236 -0.0139,0.047 -0.0276,0.0671 -0.0136,0.0201 -0.0333,0.0369 -0.0567,0.0435 -0.0201,0.006 -0.0416,0.004 -0.0624,0.001 -0.0208,-0.002 -0.042,-0.005 -0.0626,-0.001 -0.0304,0.006 -0.0562,0.0266 -0.075,0.0512 -0.0188,0.0246 -0.0316,0.0531 -0.0449,0.081 -0.0133,0.0279 -0.0276,0.056 -0.0488,0.0785 -0.0106,0.0113 -0.0228,0.0211 -0.0366,0.0281 -0.0138,0.007 -0.0292,0.0112 -0.0446,0.0111 -0.0217,-1.2e-4 -0.0424,-0.008 -0.0637,-0.0124 -0.0107,-0.002 -0.0216,-0.003 -0.0324,-0.001 -0.0107,0.002 -0.0212,0.006 -0.0289,0.0138 -0.008,0.008 -0.0122,0.0182 -0.0139,0.0289 -0.002,0.0107 -7.5e-4,0.0217 0.001,0.0324 0.004,0.0213 0.0123,0.042 0.0126,0.0637 1.9e-4,0.0155 -0.004,0.0308 -0.0106,0.0447 -0.007,0.0138 -0.0164,0.0262 -0.0276,0.037 -0.0222,0.0215 -0.05,0.0362 -0.0777,0.0498 -0.0278,0.0136 -0.0562,0.0264 -0.0809,0.0449 -0.0247,0.0185 -0.0459,0.0436 -0.0532,0.0736 -0.005,0.0203 -0.004,0.0415 -0.002,0.0624 0.001,0.0208 0.002,0.0417 0.002,0.0626 l 0,0.375 c 0,0.021 0.001,0.0419 0.003,0.0627 0.002,0.0209 0.004,0.0425 -0.003,0.0623 -0.005,0.0141 -0.0147,0.0263 -0.0259,0.0363 -0.0112,0.01 -0.0239,0.0181 -0.0366,0.0262 -0.0127,0.008 -0.0254,0.0162 -0.0366,0.0262 -0.0112,0.01 -0.0208,0.0222 -0.0259,0.0363 -0.007,0.0197 -0.005,0.0414 -0.003,0.0623 0.002,0.0209 0.003,0.0418 0.003,0.0627 l 0,0.25 c 0,0.0215 0.003,0.0429 0.008,0.0639 0.002,0.0105 0.005,0.0212 0.004,0.0319 -2e-4,0.005 -0.001,0.0107 -0.003,0.0158 -0.002,0.005 -0.005,0.01 -0.009,0.0134 -0.004,0.004 -0.009,0.006 -0.0144,0.008 -0.005,0.001 -0.0109,0.002 -0.0164,0.001 -0.011,-9.7e-4 -0.0214,-0.005 -0.0317,-0.009 -0.0103,-0.004 -0.0207,-0.008 -0.0317,-0.009 -0.005,-4.9e-4 -0.0111,-2.1e-4 -0.0164,0.001 -0.005,0.001 -0.0104,0.004 -0.0144,0.008 -0.004,0.004 -0.007,0.008 -0.009,0.0134 -0.002,0.005 -0.003,0.0104 -0.003,0.0158 -3.8e-4,0.0107 0.002,0.0214 0.004,0.0319 0.005,0.021 0.008,0.0424 0.008,0.0639 l 0,0.375 0,0.25 c 0,0.021 0.001,0.0419 0.003,0.0627 0.002,0.0209 0.004,0.0425 -0.003,0.0623 -0.005,0.0141 -0.0147,0.0263 -0.0259,0.0363 -0.0112,0.01 -0.0239,0.0181 -0.0366,0.0262 -0.0127,0.008 -0.0254,0.0162 -0.0366,0.0262 -0.0112,0.01 -0.0208,0.0222 -0.0259,0.0363 -0.007,0.0197 -0.005,0.0414 -0.003,0.0623 0.002,0.0209 0.003,0.0418 0.003,0.0627 l 0,0.25 0,0.75 0,0.375 c 0,0.021 -0.001,0.0419 -0.003,0.0627 -0.002,0.0209 -0.004,0.0425 0.003,0.0623 0.005,0.0141 0.0147,0.0263 0.0259,0.0363 0.0112,0.01 0.0239,0.0181 0.0366,0.0262 0.0127,0.008 0.0254,0.0162 0.0366,0.0262 0.0112,0.01 0.0208,0.0222 0.0259,0.0363 0.007,0.0197 0.005,0.0414 0.003,0.0623 -0.002,0.0209 -0.003,0.0418 -0.003,0.0627 l 0,0.125 0,0.375 c 0,0.021 -0.001,0.0419 -0.003,0.0627 -0.002,0.0209 -0.004,0.0425 0.003,0.0623 0.005,0.0141 0.0147,0.0263 0.0259,0.0363 0.0112,0.01 0.0239,0.0181 0.0366,0.0262 0.0127,0.008 0.0254,0.0162 0.0366,0.0262 0.0112,0.01 0.0208,0.0222 0.0259,0.0363 0.007,0.0197 0.005,0.0414 0.003,0.0623 -0.002,0.0209 -0.003,0.0418 -0.003,0.0627 l 0,0.25 c 0,0.0214 -0.003,0.0426 -0.007,0.0636 -0.002,0.0105 -0.004,0.0211 -0.004,0.0318 3.2e-4,0.0107 0.003,0.0217 0.0103,0.0297 0.007,0.008 0.0181,0.0124 0.029,0.0133 0.0109,8.7e-4 0.0217,-0.001 0.0322,-0.004 0.0105,-0.003 0.0208,-0.007 0.0314,-0.009 0.0107,-0.002 0.0219,-0.003 0.0324,-1.3e-4 0.0111,0.003 0.0209,0.0103 0.0279,0.0195 0.007,0.009 0.0112,0.0203 0.0129,0.0317 0.003,0.0228 -0.003,0.046 -0.0116,0.0674 -0.009,0.0213 -0.02,0.0417 -0.0272,0.0636 -0.007,0.0219 -0.0101,0.0463 -0.002,0.0678 0.005,0.014 0.0151,0.026 0.0263,0.036 0.0112,0.01 0.0239,0.0181 0.0366,0.0262 0.0126,0.008 0.0253,0.0163 0.0364,0.0264 0.0111,0.0101 0.0207,0.0223 0.0257,0.0364 0.007,0.0197 0.005,0.0414 0.003,0.0623 -0.002,0.0209 -0.003,0.0418 -0.003,0.0627 l 0,0.25 c 0,0.0215 -0.003,0.0429 -0.008,0.0639 -0.002,0.0105 -0.005,0.0212 -0.004,0.0319 2e-4,0.005 0.001,0.0107 0.003,0.0158 0.002,0.005 0.005,0.01 0.009,0.0134 0.004,0.004 0.009,0.006 0.0144,0.008 0.005,0.001 0.0109,0.002 0.0164,0.001 0.011,-9.7e-4 0.0214,-0.005 0.0317,-0.009 0.0103,-0.004 0.0207,-0.008 0.0317,-0.009 0.005,-4.9e-4 0.0111,-2.1e-4 0.0164,0.001 0.005,0.001 0.0104,0.004 0.0144,0.008 0.004,0.004 0.007,0.008 0.009,0.0134 0.002,0.005 0.003,0.0104 0.003,0.0158 3.8e-4,0.0107 -0.002,0.0214 -0.004,0.0319 -0.005,0.021 -0.008,0.0424 -0.008,0.0639 l 0,0.25 c 0,0.0209 -0.001,0.0419 -0.003,0.0627 -0.002,0.0209 -0.004,0.0424 0.003,0.0623 0.005,0.0142 0.0137,0.0267 0.0243,0.0373 0.0106,0.0106 0.0228,0.0193 0.0352,0.0277 0.0124,0.008 0.0249,0.0166 0.0364,0.0262 0.0115,0.01 0.0219,0.0207 0.0291,0.0338 0.0102,0.0188 0.013,0.0408 0.0117,0.0621 -0.001,0.0213 -0.007,0.0422 -0.0117,0.0629 -0.005,0.0207 -0.0104,0.0416 -0.0117,0.0629 -0.001,0.0213 0.002,0.0434 0.0117,0.0621 0.007,0.0132 0.0176,0.0243 0.0291,0.0338 0.0115,0.01 0.0241,0.0177 0.0364,0.0262 0.0124,0.008 0.0246,0.0172 0.0352,0.0277 0.0106,0.0105 0.0196,0.0231 0.0243,0.0373 0.007,0.0199 0.005,0.0414 0.003,0.0623 -0.002,0.0209 -0.003,0.0418 -0.003,0.0627 l 0,0.125 c 0,0.0215 -0.003,0.0429 -0.008,0.0639 -0.002,0.0105 -0.005,0.0212 -0.004,0.0319 1.9e-4,0.005 0.001,0.0108 0.003,0.0158 0.002,0.005 0.005,0.01 0.009,0.0134 0.004,0.004 0.009,0.006 0.0145,0.008 0.005,0.001 0.0109,0.002 0.0164,0.001 0.011,-0.001 0.0214,-0.005 0.0317,-0.009 0.0103,-0.004 0.0207,-0.008 0.0317,-0.009 0.005,-4.5e-4 0.0111,-1.1e-4 0.0164,0.001 0.005,0.001 0.0103,0.004 0.0143,0.008 0.004,0.004 0.007,0.009 0.008,0.014 0.002,0.005 0.002,0.0108 0.002,0.0163 -6.4e-4,0.011 -0.004,0.0215 -0.008,0.0318 -0.004,0.0103 -0.008,0.0206 -0.009,0.0316 -6.5e-4,0.005 -5.8e-4,0.011 5.8e-4,0.0164 0.001,0.005 0.003,0.0106 0.007,0.0148 0.003,0.004 0.008,0.008 0.013,0.01 0.005,0.002 0.0104,0.003 0.0159,0.004 0.0109,6.2e-4 0.0218,-0.002 0.0322,-0.005 0.0104,-0.003 0.0207,-0.007 0.0314,-0.01 0.0107,-0.002 0.0222,-0.003 0.0324,0.001 0.0112,0.004 0.0201,0.0137 0.025,0.0247 0.005,0.011 0.006,0.0234 0.005,0.0353 -0.003,0.0238 -0.0165,0.0449 -0.0296,0.065 -0.013,0.0202 -0.0264,0.0412 -0.0296,0.065 -0.002,0.0119 -4e-4,0.0243 0.005,0.0353 0.005,0.0109 0.0138,0.0203 0.025,0.0246 0.0102,0.004 0.0217,0.004 0.0324,0.001 0.0107,-0.002 0.021,-0.006 0.0314,-0.01 0.0104,-0.003 0.0213,-0.006 0.0323,-0.005 0.005,3.1e-4 0.0109,0.001 0.0159,0.004 0.005,0.002 0.01,0.006 0.013,0.01 0.003,0.004 0.006,0.009 0.007,0.0149 0.001,0.005 0.001,0.011 5.2e-4,0.0164 -0.001,0.0109 -0.005,0.0213 -0.009,0.0316 -0.004,0.0103 -0.008,0.0208 -0.008,0.0318 -3e-4,0.005 2.2e-4,0.0111 0.002,0.0163 0.002,0.005 0.005,0.0102 0.009,0.0139 0.004,0.004 0.009,0.006 0.0144,0.008 0.005,0.001 0.011,0.002 0.0165,0.001 0.011,-0.001 0.0214,-0.005 0.0317,-0.009 0.0103,-0.004 0.0207,-0.008 0.0318,-0.009 0.006,-4.6e-4 0.0111,-1e-4 0.0164,0.001 0.005,0.002 0.0103,0.004 0.0142,0.008 0.004,0.004 0.007,0.009 0.008,0.0143 0.001,0.005 0.002,0.011 0.001,0.0165 -0.001,0.011 -0.005,0.0215 -0.009,0.0317 -0.004,0.0103 -0.008,0.0207 -0.009,0.0317 -5e-4,0.006 -1.9e-4,0.0111 0.001,0.0165 0.002,0.005 0.004,0.0104 0.008,0.0143 0.004,0.004 0.009,0.007 0.0143,0.008 0.005,0.001 0.011,0.002 0.0165,0.001 0.011,-0.001 0.0215,-0.005 0.0317,-0.009 0.0103,-0.004 0.0207,-0.008 0.0317,-0.009 0.006,-5.1e-4 0.0111,-2.1e-4 0.0165,0.001 0.005,0.001 0.0104,0.004 0.0143,0.008 0.004,0.004 0.007,0.009 0.008,0.0143 0.002,0.005 0.002,0.0109 0.001,0.0165 -9.8e-4,0.011 -0.005,0.0215 -0.009,0.0318 -0.004,0.0103 -0.008,0.0207 -0.009,0.0317 -5.4e-4,0.005 -2.6e-4,0.0111 0.001,0.0165 0.001,0.005 0.004,0.0104 0.008,0.0144 0.004,0.004 0.009,0.007 0.0141,0.008 0.005,0.002 0.0109,0.002 0.0164,0.002 0.011,-8.3e-4 0.0215,-0.005 0.0318,-0.009 0.0103,-0.004 0.0207,-0.008 0.0317,-0.009 0.005,-5.9e-4 0.0111,-4e-4 0.0165,9.3e-4 0.005,0.001 0.0105,0.004 0.0146,0.008 0.004,0.004 0.007,0.008 0.009,0.0137 0.002,0.005 0.003,0.0107 0.002,0.0162 -2.1e-4,0.011 -0.004,0.0216 -0.007,0.0319 -0.004,0.0103 -0.008,0.0206 -0.009,0.0315 -0.002,0.0109 -5.1e-4,0.0225 0.005,0.0317 0.003,0.005 0.007,0.008 0.012,0.0113 0.005,0.003 0.0101,0.005 0.0155,0.006 0.0109,0.002 0.0222,5.7e-4 0.033,-0.002 0.0108,-0.003 0.0212,-0.007 0.0318,-0.01 0.0106,-0.003 0.0217,-0.006 0.0327,-0.005 0.0153,7.4e-4 0.0299,0.007 0.0421,0.0162 0.0122,0.009 0.0222,0.021 0.0309,0.0335 0.0174,0.0251 0.0304,0.0536 0.052,0.0752 0.0215,0.0216 0.0499,0.0347 0.0749,0.0522 0.0125,0.009 0.0243,0.0187 0.0335,0.0309 0.009,0.0122 0.0156,0.0267 0.0165,0.042 6.6e-4,0.011 -0.002,0.022 -0.005,0.0326 -0.003,0.0106 -0.007,0.021 -0.009,0.0317 -0.003,0.0107 -0.004,0.0219 -0.002,0.0328 0.002,0.0109 0.007,0.0214 0.0162,0.0279 0.009,0.006 0.0202,0.008 0.0311,0.007 0.0108,-9.4e-4 0.0212,-0.004 0.0315,-0.008 0.0103,-0.003 0.0208,-0.007 0.0316,-0.007 0.0108,-7.4e-4 0.0222,0.001 0.0308,0.008 0.009,0.007 0.0136,0.0175 0.0149,0.0284 0.001,0.0109 -4e-4,0.0219 -0.003,0.0325 -0.003,0.0106 -0.007,0.0209 -0.009,0.0316 -0.003,0.0106 -0.004,0.0217 -0.003,0.0326 0.002,0.015 0.011,0.0284 0.0219,0.039 0.0109,0.0106 0.0239,0.0186 0.0371,0.0262 0.0131,0.008 0.0265,0.0149 0.0384,0.0244 0.0119,0.009 0.0223,0.0212 0.0276,0.0354 0.004,0.01 0.005,0.0205 0.005,0.0311 -2.8e-4,0.0105 -0.002,0.021 -0.004,0.0314 -0.003,0.0208 -0.007,0.0425 -8.9e-4,0.0626 0.004,0.0132 0.0126,0.025 0.0237,0.0332 0.0111,0.008 0.0249,0.0127 0.0388,0.0127 0.0138,0 0.0276,-0.005 0.0388,-0.0127 0.0112,-0.008 0.0196,-0.02 0.0237,-0.0332 -0.0158,8.7e-4 -0.0312,0.008 -0.042,0.0195 -0.0109,0.0115 -0.0171,0.0272 -0.0171,0.043 0,0.0158 0.006,0.0316 0.0171,0.043 0.0109,0.0115 0.0262,0.0186 0.042,0.0195 0.0111,6.1e-4 0.0221,-0.002 0.0327,-0.005 0.0106,-0.003 0.021,-0.007 0.0317,-0.01 0.0107,-0.003 0.022,-0.004 0.0329,-0.002 0.0109,0.002 0.0215,0.008 0.0276,0.0168 0.006,0.009 0.007,0.0207 0.006,0.0315 -0.001,0.0108 -0.005,0.0212 -0.009,0.0315 -0.004,0.0103 -0.007,0.0209 -0.007,0.0318 -1.9e-4,0.005 4.1e-4,0.011 0.002,0.0162 0.002,0.005 0.004,0.0101 0.008,0.014 0.004,0.004 0.009,0.007 0.014,0.008 0.005,0.002 0.0107,0.002 0.0162,0.002 0.0109,-3.6e-4 0.0215,-0.004 0.0318,-0.007 0.0103,-0.004 0.0207,-0.008 0.0315,-0.009 0.0109,-0.001 0.0225,-1.3e-4 0.0315,0.006 0.009,0.006 0.0149,0.0167 0.0168,0.0276 0.002,0.0109 5.4e-4,0.0222 -0.002,0.0329 -0.003,0.0108 -0.007,0.0211 -0.01,0.0318 -0.003,0.0106 -0.006,0.0216 -0.005,0.0327 7.5e-4,0.0153 0.007,0.0299 0.0162,0.0421 0.009,0.0122 0.0209,0.0223 0.0335,0.031 0.025,0.0175 0.0535,0.0305 0.0753,0.0518 0.0217,0.0213 0.0352,0.0493 0.0527,0.0742 0.009,0.0124 0.0187,0.0242 0.0307,0.0334 0.0121,0.009 0.0264,0.016 0.0415,0.0174 0.0216,0.002 0.0426,-0.007 0.0638,-0.0113 0.0106,-0.002 0.0216,-0.004 0.0323,-0.002 0.0108,0.001 0.0214,0.006 0.0289,0.0137 0.007,0.008 0.0112,0.0186 0.0121,0.0294 9.2e-4,0.0108 -8.3e-4,0.0216 -0.003,0.0321 -0.002,0.0105 -0.006,0.0208 -0.008,0.0314 -0.002,0.0106 -0.003,0.0216 -0.001,0.0321 0.003,0.0147 0.0114,0.0278 0.0218,0.0386 0.0103,0.0108 0.0225,0.0198 0.0346,0.0286 0.0243,0.0176 0.0474,0.0366 0.0686,0.0578 l 0.25,0.25 c 0.021,0.021 0.0436,0.0405 0.067,0.0588 0.0117,0.009 0.0234,0.0184 0.0338,0.0291 0.0103,0.0107 0.0193,0.023 0.0242,0.0371 0.007,0.0198 0.005,0.0415 0.002,0.0623 -0.003,0.0208 -0.006,0.042 -0.002,0.0627 0.003,0.0153 0.009,0.0298 0.0186,0.0424 0.009,0.0126 0.0205,0.0235 0.033,0.0328 0.025,0.0186 0.054,0.0308 0.0823,0.0437 0.0283,0.0129 0.0567,0.027 0.0793,0.0485 0.0113,0.0107 0.021,0.0232 0.0276,0.0373 0.007,0.0141 0.0102,0.0297 0.009,0.0453 -0.001,0.0222 -0.0117,0.0427 -0.0164,0.0644 -0.002,0.0109 -0.003,0.0222 -9.5e-4,0.0331 0.002,0.0109 0.008,0.0212 0.0173,0.0275 0.009,0.006 0.0202,0.008 0.031,0.007 0.0108,-7.8e-4 0.0212,-0.004 0.0315,-0.007 0.0103,-0.003 0.0208,-0.006 0.0315,-0.007 0.0108,-7.8e-4 0.0221,0.001 0.031,0.007 0.009,0.006 0.015,0.0167 0.0173,0.0275 0.002,0.0109 0.001,0.0222 -9.7e-4,0.0331 -0.005,0.0217 -0.015,0.0423 -0.0163,0.0644 -9.5e-4,0.0155 0.003,0.0312 0.009,0.0453 0.007,0.014 0.0165,0.0265 0.0278,0.0372 0.0227,0.0214 0.0512,0.0353 0.0795,0.0482 0.0284,0.0129 0.0574,0.0251 0.0824,0.0437 0.0125,0.009 0.0238,0.0202 0.0328,0.033 0.009,0.0127 0.0156,0.0273 0.0181,0.0426 0.003,0.0207 -4e-4,0.0419 -0.003,0.0627 -0.003,0.0208 -0.004,0.0427 0.003,0.0623 0.005,0.014 0.0153,0.0259 0.0266,0.0358 0.0113,0.01 0.0241,0.0179 0.0367,0.026 0.0127,0.008 0.0254,0.0163 0.0364,0.0264 0.0111,0.0102 0.0205,0.0225 0.0252,0.0367 0.007,0.02 0.004,0.0417 3.8e-4,0.0625 -0.003,0.0208 -0.007,0.0424 -3.8e-4,0.0625 0.004,0.0117 0.0103,0.0223 0.0187,0.0311 0.008,0.009 0.0187,0.0158 0.0296,0.0212 0.0219,0.0108 0.0463,0.0152 0.0705,0.0186 0.0242,0.003 0.0487,0.006 0.0719,0.0134 0.0232,0.007 0.0456,0.0205 0.0592,0.0407 0.012,0.0177 0.0164,0.0397 0.0161,0.0611 -3.6e-4,0.0214 -0.005,0.0424 -0.0105,0.0632 -0.005,0.0207 -0.0111,0.0414 -0.0133,0.0627 -0.002,0.0213 -8.5e-4,0.0434 0.008,0.063 0.006,0.0136 0.0152,0.0255 0.0256,0.0361 0.0103,0.0106 0.0218,0.0201 0.0333,0.0295 0.023,0.0188 0.0452,0.0384 0.0661,0.0594 l 0.25,0.25 c 0.0211,0.0211 0.0438,0.0404 0.0675,0.0585 0.0118,0.009 0.0237,0.0182 0.034,0.029 0.0103,0.0107 0.0192,0.0233 0.0235,0.0375 0.006,0.0201 0.003,0.0418 -6e-4,0.0626 -0.003,0.0208 -0.006,0.0426 6e-4,0.0624 0.004,0.0116 0.0113,0.022 0.0203,0.0304 0.009,0.008 0.0198,0.0147 0.0311,0.0194 0.0227,0.009 0.0476,0.0121 0.0721,0.0146 0.0245,0.002 0.0493,0.005 0.0724,0.0134 0.0115,0.004 0.0225,0.0102 0.032,0.0181 0.009,0.008 0.0173,0.0178 0.0221,0.0291 0.008,0.0194 0.007,0.0414 0.004,0.0622 -0.003,0.0209 -0.007,0.0419 -0.004,0.0628 0.004,0.0304 0.0228,0.0574 0.046,0.0775 0.0232,0.0201 0.0509,0.0342 0.0784,0.048 0.0274,0.0138 0.0552,0.0278 0.0786,0.0476 0.0234,0.0199 0.0425,0.0465 0.047,0.0769 0.003,0.0208 -6.1e-4,0.0419 -0.003,0.0627 -0.003,0.0208 -0.004,0.0426 0.003,0.0623 0.009,0.0228 0.0281,0.04 0.05,0.0505 0.0219,0.0105 0.0461,0.0151 0.0701,0.0188 0.024,0.004 0.0483,0.007 0.0713,0.0146 0.023,0.008 0.045,0.021 0.0586,0.0411 0.012,0.0177 0.0168,0.0395 0.0168,0.0609 4e-5,0.0214 -0.004,0.0425 -0.009,0.0632 -0.005,0.0208 -0.0107,0.0415 -0.0132,0.0627 -0.003,0.0212 -0.002,0.0432 0.006,0.0632 0.0104,0.0279 0.033,0.0495 0.0564,0.0679 0.0235,0.0184 0.0488,0.0348 0.0686,0.0571 0.0202,0.0228 0.0336,0.0508 0.0516,0.0753 0.009,0.0123 0.0193,0.0238 0.0315,0.0328 0.0123,0.009 0.0267,0.0154 0.0419,0.0169 0.0215,0.002 0.0425,-0.006 0.0636,-0.0103 0.0106,-0.002 0.0214,-0.004 0.0322,-0.002 0.0107,0.001 0.0213,0.005 0.0292,0.0126 0.008,0.007 0.0127,0.0179 0.0145,0.0287 0.002,0.0107 8.5e-4,0.0218 -0.001,0.0325 -0.004,0.0214 -0.0128,0.0421 -0.0132,0.0639 -3e-4,0.0155 0.004,0.0309 0.0105,0.0448 0.007,0.0139 0.0166,0.0263 0.0277,0.0369 0.0224,0.0214 0.0503,0.0359 0.0782,0.0493 0.0279,0.0134 0.0565,0.0261 0.0812,0.0447 0.0247,0.0186 0.0457,0.0441 0.0523,0.0743 0.004,0.0205 0.002,0.0417 -1.4e-4,0.0625 -0.002,0.0208 -0.005,0.0421 1.4e-4,0.0625 0.007,0.0303 0.0285,0.0556 0.0536,0.0738 0.0252,0.0183 0.0541,0.0305 0.0823,0.0436 0.0282,0.0132 0.0563,0.0277 0.0785,0.0495 0.0111,0.0109 0.0206,0.0236 0.027,0.0377 0.006,0.0142 0.01,0.0299 0.009,0.0453 -0.002,0.0222 -0.0122,0.0428 -0.0169,0.0645 -0.002,0.0109 -0.003,0.0223 -8.4e-4,0.0331 0.002,0.0109 0.008,0.0212 0.0178,0.0273 0.009,0.006 0.0205,0.007 0.0312,0.006 0.0108,-0.001 0.0212,-0.005 0.0315,-0.008 0.0103,-0.003 0.0208,-0.007 0.0316,-0.007 0.0108,-5.6e-4 0.0222,0.002 0.0306,0.009 0.009,0.007 0.0134,0.0176 0.0147,0.0284 0.001,0.0109 -4.4e-4,0.0219 -0.003,0.0325 -0.003,0.0106 -0.007,0.0209 -0.009,0.0315 -0.003,0.0106 -0.004,0.0217 -0.002,0.0325 0.002,0.0148 0.0109,0.0281 0.0212,0.0389 0.0104,0.0109 0.0226,0.0197 0.0348,0.0285 0.0244,0.0174 0.0478,0.0364 0.069,0.0576 l 0.125,0.125 c 0.021,0.021 0.0436,0.0405 0.067,0.0588 0.0117,0.009 0.0234,0.0185 0.0337,0.0292 0.0103,0.0107 0.0194,0.023 0.0243,0.037 0.008,0.0213 0.005,0.045 -0.001,0.0667 -0.006,0.0217 -0.0164,0.0421 -0.0243,0.0633 -0.008,0.0212 -0.0136,0.0439 -0.0108,0.0663 0.001,0.0112 0.005,0.0222 0.0112,0.0317 0.006,0.01 0.0149,0.0174 0.0252,0.0219 0.01,0.004 0.0205,0.005 0.0311,0.005 0.0106,-5.3e-4 0.021,-0.003 0.0314,-0.005 0.0104,-0.002 0.0208,-0.004 0.0314,-0.005 0.0106,-5.3e-4 0.0214,6.1e-4 0.0311,0.005 0.0104,0.005 0.0191,0.0124 0.0253,0.0219 0.006,0.009 0.01,0.0205 0.0112,0.0317 0.003,0.0224 -0.003,0.0451 -0.0108,0.0663 -0.008,0.0212 -0.0179,0.0416 -0.0243,0.0633 -0.006,0.0217 -0.009,0.0454 -0.001,0.0667 0.005,0.0141 0.014,0.0265 0.0247,0.037 0.0106,0.0105 0.0229,0.0192 0.0352,0.0277 0.0123,0.008 0.0249,0.0167 0.0363,0.0263 0.0114,0.01 0.0218,0.0208 0.0289,0.034 0.0101,0.0188 0.0129,0.0409 0.0116,0.0622 -0.001,0.0213 -0.007,0.0422 -0.0117,0.0629 -0.005,0.0207 -0.0104,0.0416 -0.0116,0.0629 -0.001,0.0213 0.002,0.0433 0.0118,0.0621 0.007,0.0132 0.0176,0.0243 0.0291,0.0338 0.0115,0.01 0.0241,0.0177 0.0364,0.0262 0.0124,0.008 0.0246,0.0172 0.0352,0.0277 0.0106,0.0106 0.0196,0.0231 0.0243,0.0373 0.007,0.0199 0.005,0.0414 0.003,0.0623 -0.002,0.0209 -0.003,0.0418 -0.003,0.0627 l 0,0.375 c 0,0.021 -0.001,0.0419 -0.003,0.0627 -0.002,0.0209 -0.004,0.0425 0.003,0.0623 0.005,0.0141 0.0147,0.0263 0.0259,0.0363 0.0112,0.01 0.0239,0.0181 0.0366,0.0262 0.0127,0.008 0.0254,0.0162 0.0366,0.0262 0.0112,0.01 0.0208,0.0222 0.0259,0.0363 0.007,0.0197 0.005,0.0414 0.003,0.0623 -0.002,0.0209 -0.003,0.0418 -0.003,0.0627 l 0,0.125 0,0.5 c 0,0.0214 0.003,0.0426 0.007,0.0636 0.002,0.0105 0.004,0.0211 0.004,0.0317 -3.2e-4,0.0107 -0.003,0.0217 -0.0102,0.0297 -0.007,0.008 -0.0181,0.0124 -0.029,0.0133 -0.0109,9.1e-4 -0.0217,-0.001 -0.0322,-0.004 -0.0105,-0.003 -0.0208,-0.007 -0.0314,-0.009 -0.0107,-0.002 -0.0218,-0.003 -0.0324,-2.9e-4 -0.0112,0.003 -0.021,0.0101 -0.0281,0.0192 -0.007,0.009 -0.0115,0.0202 -0.0134,0.0316 -0.004,0.0228 0.002,0.0461 0.0107,0.0676 0.009,0.0215 0.0198,0.0418 0.0272,0.0637 0.007,0.0219 0.0109,0.046 0.004,0.068 -0.005,0.0142 -0.0137,0.0267 -0.0244,0.0372 -0.0106,0.0105 -0.0229,0.0192 -0.0353,0.0276 -0.0124,0.008 -0.025,0.0165 -0.0365,0.0262 -0.0115,0.01 -0.0219,0.0208 -0.0289,0.034 -0.01,0.0189 -0.0125,0.0411 -0.0108,0.0624 0.002,0.0213 0.007,0.0421 0.0127,0.0628 0.005,0.0207 0.0107,0.0416 0.0118,0.063 0.001,0.0214 -0.003,0.0435 -0.0137,0.0618 -0.008,0.0129 -0.0192,0.0234 -0.0314,0.0323 -0.0122,0.009 -0.0254,0.0164 -0.0382,0.0245 -0.0127,0.008 -0.0252,0.017 -0.0353,0.0282 -0.0101,0.0112 -0.018,0.025 -0.02,0.0399 -0.002,0.0108 -3e-5,0.0218 0.002,0.0324 0.002,0.0106 0.006,0.0209 0.008,0.0315 0.003,0.0106 0.004,0.0215 0.003,0.0323 -0.001,0.0108 -0.006,0.0215 -0.0138,0.0288 -0.008,0.007 -0.0189,0.0106 -0.0297,0.0111 -0.0108,4.8e-4 -0.0215,-0.002 -0.0319,-0.004 -0.0104,-0.003 -0.0207,-0.006 -0.0314,-0.008 -0.0106,-0.002 -0.0217,-0.002 -0.032,0.001 -0.0109,0.004 -0.0204,0.011 -0.0271,0.0203 -0.007,0.009 -0.0106,0.0205 -0.0121,0.0319 -0.003,0.0228 0.004,0.0457 0.0122,0.0669 0.009,0.0212 0.0198,0.0416 0.0266,0.0635 0.003,0.0109 0.006,0.0223 0.006,0.0338 3.4e-4,0.0115 -0.001,0.0231 -0.006,0.0337 -0.005,0.0113 -0.0124,0.0213 -0.0218,0.0292 -0.009,0.008 -0.0202,0.014 -0.0316,0.0185 -0.0228,0.009 -0.0476,0.0117 -0.0719,0.0144 -0.0244,0.003 -0.0491,0.005 -0.0719,0.0146 -0.0114,0.005 -0.0222,0.0107 -0.0314,0.0188 -0.009,0.008 -0.0168,0.0181 -0.0214,0.0295 -0.008,0.0195 -0.006,0.0414 -0.003,0.0623 0.003,0.0208 0.007,0.042 0.003,0.0627 -0.003,0.0154 -0.009,0.03 -0.0182,0.0427 -0.009,0.0127 -0.0205,0.0236 -0.033,0.0329 -0.0251,0.0186 -0.0543,0.0306 -0.0827,0.0433 -0.0285,0.0127 -0.0571,0.0267 -0.0797,0.0482 -0.0113,0.0107 -0.021,0.0233 -0.0276,0.0374 -0.007,0.0141 -0.01,0.0299 -0.009,0.0455 0.002,0.0223 0.0128,0.0429 0.0177,0.0647 0.002,0.0109 0.003,0.0224 8.2e-4,0.0333 -0.003,0.0109 -0.009,0.0212 -0.0185,0.027 -0.009,0.006 -0.0211,0.006 -0.0319,0.005 -0.0108,-0.002 -0.0211,-0.006 -0.0315,-0.009 -0.0103,-0.004 -0.021,-0.007 -0.032,-0.007 -0.005,-3e-5 -0.011,7.8e-4 -0.0161,0.003 -0.005,0.002 -0.01,0.005 -0.0135,0.009 -0.004,0.004 -0.006,0.009 -0.007,0.0146 -0.001,0.005 -0.001,0.011 -8.4e-4,0.0165 0.001,0.011 0.005,0.0214 0.009,0.0316 0.004,0.0103 0.008,0.0208 0.009,0.0318 3.9e-4,0.005 -3e-5,0.0111 -0.002,0.0164 -0.002,0.005 -0.004,0.0102 -0.008,0.0141 -0.004,0.004 -0.009,0.007 -0.0144,0.008 -0.005,0.001 -0.011,0.002 -0.0165,0.001 -0.011,-0.001 -0.0214,-0.005 -0.0317,-0.009 -0.0103,-0.004 -0.0207,-0.008 -0.0317,-0.009 -0.006,-4.9e-4 -0.0111,-1.5e-4 -0.0165,0.001 -0.005,0.002 -0.0103,0.004 -0.0142,0.008 -0.004,0.004 -0.007,0.009 -0.008,0.0143 -0.001,0.005 -0.002,0.011 -0.001,0.0165 0.001,0.011 0.005,0.0215 0.009,0.0317 0.004,0.0103 0.008,0.0207 0.009,0.0317 5.1e-4,0.006 1.9e-4,0.0111 -0.001,0.0165 -0.001,0.005 -0.004,0.0104 -0.008,0.0143 -0.004,0.004 -0.009,0.007 -0.0143,0.008 -0.005,0.001 -0.011,0.002 -0.0165,0.001 -0.011,-0.001 -0.0215,-0.005 -0.0317,-0.009 -0.0103,-0.004 -0.0207,-0.008 -0.0317,-0.009 -0.006,-5.1e-4 -0.0111,-2.1e-4 -0.0165,0.001 -0.005,0.001 -0.0104,0.004 -0.0143,0.008 -0.004,0.004 -0.007,0.009 -0.008,0.0143 -0.002,0.005 -0.002,0.011 -0.001,0.0165 0.001,0.011 0.005,0.0215 0.009,0.0317 0.004,0.0103 0.008,0.0207 0.009,0.0317 5.1e-4,0.006 2.1e-4,0.0111 -0.001,0.0165 -0.001,0.005 -0.004,0.0104 -0.008,0.0143 -0.004,0.004 -0.009,0.007 -0.0143,0.008 -0.005,0.001 -0.0109,0.002 -0.0165,0.001 -0.011,-0.001 -0.0215,-0.005 -0.0317,-0.009 -0.0103,-0.004 -0.0207,-0.008 -0.0317,-0.009 -0.006,-5.1e-4 -0.0111,-2.1e-4 -0.0165,0.001 -0.005,0.001 -0.0104,0.004 -0.0143,0.008 -0.004,0.004 -0.007,0.009 -0.008,0.0143 -0.002,0.005 -0.002,0.0109 -0.001,0.0165 9.8e-4,0.011 0.005,0.0215 0.009,0.0317 0.004,0.0103 0.008,0.0207 0.009,0.0317 5.3e-4,0.006 2.6e-4,0.0111 -0.001,0.0165 -0.001,0.005 -0.004,0.0104 -0.008,0.0144 -0.004,0.004 -0.009,0.007 -0.0141,0.008 -0.005,0.002 -0.0109,0.002 -0.0164,0.002 -0.011,-8.3e-4 -0.0215,-0.005 -0.0318,-0.009 -0.0103,-0.004 -0.0207,-0.008 -0.0317,-0.009 -0.005,-5.8e-4 -0.0111,-4e-4 -0.0165,9.3e-4 -0.005,0.001 -0.0105,0.004 -0.0146,0.008 -0.004,0.004 -0.007,0.008 -0.009,0.0137 -0.002,0.005 -0.003,0.0107 -0.002,0.0162 2.1e-4,0.011 0.004,0.0216 0.007,0.0319 0.004,0.0103 0.008,0.0206 0.009,0.0315 0.002,0.0109 5.3e-4,0.0225 -0.005,0.0317 -0.003,0.005 -0.007,0.008 -0.012,0.0113 -0.005,0.003 -0.0101,0.005 -0.0155,0.006 -0.0109,0.002 -0.0222,5.8e-4 -0.033,-0.002 -0.0108,-0.003 -0.0212,-0.007 -0.0318,-0.01 -0.0106,-0.003 -0.0217,-0.006 -0.0327,-0.005 -0.0153,7.1e-4 -0.0299,0.007 -0.0422,0.0162 -0.0123,0.009 -0.0223,0.0209 -0.031,0.0335 -0.0175,0.0251 -0.0304,0.0536 -0.0518,0.0754 -0.0213,0.0217 -0.0494,0.0352 -0.0742,0.0527 -0.0124,0.009 -0.0242,0.0187 -0.0335,0.0308 -0.009,0.0121 -0.0159,0.0264 -0.0173,0.0415 -0.002,0.0217 0.007,0.0426 0.0115,0.0639 0.002,0.0106 0.004,0.0216 0.002,0.0324 -0.001,0.0108 -0.006,0.0214 -0.0139,0.0288 -0.008,0.007 -0.0187,0.0109 -0.0295,0.0117 -0.0108,7.6e-4 -0.0215,-0.001 -0.032,-0.004 -0.0105,-0.003 -0.0208,-0.006 -0.0314,-0.008 -0.0106,-0.002 -0.0216,-0.003 -0.0321,-2.1e-4 -0.0148,0.004 -0.0276,0.0133 -0.0374,0.0249 -0.01,0.0116 -0.0172,0.0251 -0.0245,0.0385 -0.007,0.0134 -0.0148,0.0268 -0.0249,0.0382 -0.0101,0.0114 -0.0233,0.0207 -0.0382,0.0235 -0.0108,0.002 -0.0219,6.3e-4 -0.0325,-0.002 -0.0106,-0.003 -0.0209,-0.006 -0.0315,-0.009 -0.0106,-0.003 -0.0216,-0.005 -0.0325,-0.003 -0.0109,0.001 -0.0217,0.006 -0.0285,0.0147 -0.007,0.009 -0.009,0.0199 -0.008,0.0308 7.2e-4,0.0108 0.004,0.0213 0.007,0.0316 0.003,0.0103 0.007,0.0207 0.008,0.0315 9.7e-4,0.0108 -8.2e-4,0.0223 -0.007,0.0311 -0.006,0.009 -0.017,0.0143 -0.0279,0.0162 -0.0109,0.002 -0.0221,3.7e-4 -0.0328,-0.002 -0.0107,-0.003 -0.0211,-0.006 -0.0317,-0.009 -0.0106,-0.003 -0.0216,-0.005 -0.0326,-0.004 -0.0157,0.001 -0.0309,0.008 -0.0416,0.0197 -0.0107,0.0115 -0.0169,0.0271 -0.0169,0.0428 0,0.0157 0.006,0.0313 0.0169,0.0428 0.0107,0.0115 0.0259,0.0187 0.0416,0.0197 -0.003,-0.0142 -0.011,-0.0273 -0.0223,-0.0364 -0.0113,-0.009 -0.0257,-0.0143 -0.0402,-0.0143 -0.0145,0 -0.029,0.005 -0.0402,0.0143 -0.0113,0.009 -0.0193,0.0222 -0.0223,0.0364 -0.004,0.0208 0.002,0.0422 0.006,0.0631 0.002,0.0104 0.004,0.0211 0.003,0.0317 -5e-4,0.0106 -0.003,0.0213 -0.009,0.0302 -0.006,0.01 -0.0163,0.0166 -0.0273,0.0204 -0.0109,0.004 -0.0228,0.004 -0.0342,0.003 -0.0229,-0.003 -0.0437,-0.0144 -0.0641,-0.0254 -0.0203,-0.0109 -0.0414,-0.0219 -0.0644,-0.0242 -0.0115,-0.001 -0.0233,2e-5 -0.034,0.004 -0.0107,0.004 -0.0202,0.0119 -0.0259,0.022 -0.005,0.009 -0.007,0.0201 -0.007,0.0308 2.2e-4,0.0106 0.002,0.0211 0.005,0.0315 0.002,0.0104 0.005,0.0207 0.006,0.0313 9.5e-4,0.0106 2.4e-4,0.0215 -0.004,0.0314 -0.004,0.0106 -0.012,0.0195 -0.0215,0.0258 -0.009,0.006 -0.0206,0.01 -0.0318,0.0113 -0.0226,0.003 -0.0453,-0.003 -0.0664,-0.0117 -0.0212,-0.008 -0.0415,-0.0187 -0.0633,-0.0251 -0.0218,-0.006 -0.0458,-0.009 -0.0669,-2e-4 -0.014,0.006 -0.0259,0.0154 -0.0358,0.0266 -0.01,0.0112 -0.0181,0.0239 -0.0262,0.0365 -0.008,0.0126 -0.0164,0.0252 -0.0265,0.0363 -0.0101,0.0111 -0.0224,0.0206 -0.0365,0.0256 -0.0198,0.007 -0.0414,0.005 -0.0623,0.003 -0.0209,-0.002 -0.0418,-0.003 -0.0627,-0.003 l -0.125,0 -0.125,0 c -0.0112,0 -0.0224,-3.1e-4 -0.0334,-0.002 -0.011,-0.002 -0.0216,-0.005 -0.0322,-0.009 -0.0106,-0.003 -0.0216,-0.007 -0.0327,-0.006 -0.006,3.6e-4 -0.0111,0.002 -0.0159,0.005 -0.005,0.003 -0.009,0.007 -0.0107,0.0124 -0.002,0.006 -0.001,0.0132 0.002,0.0189 0.003,0.006 0.008,0.0102 0.0143,0.0128 0.006,0.003 0.0126,0.003 0.0191,0.003 0.006,-5.4e-4 0.0128,-0.002 0.0188,-0.005 0.012,-0.005 0.0227,-0.0128 0.034,-0.0192 0.0114,-0.006 0.0241,-0.0115 0.0371,-0.0105 0.0116,8.9e-4 0.0226,0.007 0.0303,0.0156 0.008,0.009 0.0118,0.0204 0.0123,0.032 5.1e-4,0.0116 -0.003,0.0233 -0.008,0.0335 -0.006,0.0101 -0.014,0.0188 -0.0235,0.0255 -0.0191,0.0134 -0.0427,0.0189 -0.0659,0.0203 -0.0233,0.001 -0.0466,-9.6e-4 -0.0698,-0.002 -0.0416,-0.002 -0.0833,0 -0.125,0 l -0.125,0 -0.375,0 c -0.0215,0 -0.0429,-0.003 -0.0639,-0.008 -0.0105,-0.002 -0.0212,-0.005 -0.0319,-0.004 -0.005,2e-4 -0.0107,0.001 -0.0158,0.003 -0.005,0.002 -0.01,0.005 -0.0134,0.009 -0.004,0.004 -0.006,0.009 -0.008,0.0144 -0.001,0.005 -0.002,0.0109 -0.001,0.0164 9.7e-4,0.011 0.005,0.0214 0.009,0.0317 0.004,0.0103 0.008,0.0207 0.009,0.0317 4.9e-4,0.005 2.1e-4,0.0111 -0.001,0.0164 -0.001,0.005 -0.004,0.0104 -0.008,0.0144 -0.004,0.004 -0.008,0.007 -0.0134,0.009 -0.005,0.002 -0.0104,0.003 -0.0158,0.003 -0.0108,3.8e-4 -0.0214,-0.002 -0.0319,-0.004 -0.021,-0.005 -0.0424,-0.008 -0.0639,-0.008 l -0.125,0"
         id="path5002"
         inkscape:path-effect="#path-effect5004"
         inkscape:original-d="m 735.25,480.6122 c 0.42909,-0.0979 0.36148,0.49324 0.625,0.625 0.0373,0.0186 0.0877,-0.0186 0.125,0 0.0527,0.0264 0.0833,0.0833 0.125,0.125 0.0417,0.0417 0.0833,0.0833 0.125,0.125 0.0417,0.0417 0.0723,0.0986 0.125,0.125 0.0373,0.0186 0.0955,-0.0295 0.125,0 0.0295,0.0295 -0.0295,0.0955 0,0.125 0.0295,0.0295 0.0833,0 0.125,0 0.0417,0 0.0833,0 0.125,0 0.0417,0 0.0955,-0.0295 0.125,0 0.0295,0.0295 -0.0295,0.0955 0,0.125 0.0295,0.0295 0.0833,0 0.125,0 0.0417,0 0.0833,0 0.125,0 0.0417,0 0.0877,-0.0186 0.125,0 0.10541,0.0527 0.14459,0.19729 0.25,0.25 0.0521,0.0261 0.2209,-0.0291 0.25,0 0.0295,0.0295 -0.0295,0.0955 0,0.125 0.0295,0.0295 0.0833,0 0.125,0 0.0833,0 0.16667,0 0.25,0 0.625,0 1.25,0 1.875,0 0.25,0 0.5,0 0.75,0 0.0417,0 0.0833,0 0.125,0 0.0417,0 0.0877,0.0186 0.125,0 0.0527,-0.0264 0.0723,-0.0986 0.125,-0.125 0.0373,-0.0186 0.0877,0.0186 0.125,0 0.0527,-0.0264 0.0723,-0.0986 0.125,-0.125 0.0521,-0.0261 0.2209,0.0291 0.25,0 0.0295,-0.0295 -0.0295,-0.0955 0,-0.125 0.0295,-0.0295 0.0877,0.0186 0.125,0 0.0527,-0.0264 0.0833,-0.0833 0.125,-0.125 0.125,-0.125 0.25,-0.25 0.375,-0.375 0.0417,-0.0417 0.0833,-0.0833 0.125,-0.125 0.0417,-0.0417 0.0723,-0.0986 0.125,-0.125 0.0373,-0.0186 0.0877,0.0186 0.125,0 0.0527,-0.0264 0.0833,-0.0833 0.125,-0.125 0.0417,-0.0417 0.0833,-0.0833 0.125,-0.125 0.0417,-0.0417 0.0833,-0.0833 0.125,-0.125 0.0417,-0.0417 0.0723,-0.0986 0.125,-0.125 0.0373,-0.0186 0.0955,0.0295 0.125,0 0.0295,-0.0295 -0.0295,-0.0955 0,-0.125 0.0295,-0.0295 0.0955,0.0295 0.125,0 0.0295,-0.0295 -0.0417,-0.125 0,-0.125 0.0417,0 0,0.16667 0,0.125 0,-0.0833 -0.0263,-0.17094 0,-0.25 0.0186,-0.0559 0.0833,-0.0833 0.125,-0.125 0.0417,-0.0417 0.0833,-0.0833 0.125,-0.125 0.0417,-0.0417 0.0723,-0.0986 0.125,-0.125 0.0373,-0.0186 0.0955,0.0295 0.125,0 0.0295,-0.0295 -0.0186,-0.0877 0,-0.125 0.41457,-0.41457 -0.0589,0.11785 0.125,-0.25 0.0333,-0.0667 0.21668,-0.18335 0.25,-0.25 0.0186,-0.0373 -0.0186,-0.0877 0,-0.125 0.0527,-0.10541 0.1973,-0.14459 0.25,-0.25 0.0186,-0.0373 -0.0295,-0.0955 0,-0.125 0.0295,-0.0295 0.0955,0.0295 0.125,0 0.0295,-0.0295 -0.0186,-0.0877 0,-0.125 0.0263,-0.0527 0.0987,-0.0723 0.125,-0.125 0.0186,-0.0373 -0.0186,-0.0877 0,-0.125 0.0263,-0.0527 0.0987,-0.0723 0.125,-0.125 0.0186,-0.0373 -0.0186,-0.0877 0,-0.125 0.0263,-0.0527 0.0987,-0.0723 0.125,-0.125 0.0186,-0.0373 0,-0.0833 0,-0.125 0,-0.16667 0,-0.0833 0,-0.25 0,-0.25 0,-0.5 0,-0.75 0,-0.29167 0,-0.58333 0,-0.875 0,-0.0417 0.0295,-0.0955 0,-0.125 -0.0295,-0.0295 -0.0955,0.0295 -0.125,0 -0.0295,-0.0295 0,-0.0833 0,-0.125 0,-0.0417 0,-0.0833 0,-0.125 0,-0.0417 0.0186,-0.0877 0,-0.125 -0.0263,-0.0527 -0.0987,-0.0723 -0.125,-0.125 -0.0186,-0.0373 0,-0.0833 0,-0.125 0,-0.0417 0,-0.0833 0,-0.125 0,-0.0417 0.0186,-0.0877 0,-0.125 -0.0263,-0.0527 -0.0987,-0.0723 -0.125,-0.125 -0.0186,-0.0373 0,-0.0833 0,-0.125 0,-0.0417 0,-0.0833 0,-0.125 0,-0.0417 0.0186,-0.0877 0,-0.125 -0.0263,-0.0527 -0.0987,-0.0723 -0.125,-0.125 -0.0186,-0.0373 0.0186,-0.0877 0,-0.125 -0.0263,-0.0527 -0.0987,-0.0723 -0.125,-0.125 -0.0186,-0.0373 0.0186,-0.0877 0,-0.125 -0.0263,-0.0527 -0.0833,-0.0833 -0.125,-0.125 -0.0417,-0.0417 -0.0833,-0.0833 -0.125,-0.125 -0.0417,-0.0417 -0.0987,-0.0723 -0.125,-0.125 -0.0186,-0.0373 0.0186,-0.0877 0,-0.125 -0.0263,-0.0527 -0.0833,-0.0833 -0.125,-0.125 -0.0417,-0.0417 -0.0833,-0.0833 -0.125,-0.125 -0.16667,-0.16667 -0.33333,-0.33333 -0.5,-0.5 -0.0417,-0.0417 -0.0987,-0.0723 -0.125,-0.125 -0.0186,-0.0373 0.0295,-0.0955 0,-0.125 -0.0295,-0.0295 -0.0877,0.0186 -0.125,0 -0.0527,-0.0264 -0.0833,-0.0833 -0.125,-0.125 -0.0417,-0.0417 -0.0833,-0.0833 -0.125,-0.125 -0.0417,-0.0417 -0.0723,-0.0986 -0.125,-0.125 -0.0373,-0.0186 -0.0955,0.0295 -0.125,0 -0.0295,-0.0295 0.0186,-0.0877 0,-0.125 -0.13819,-0.27638 -0.0776,-0.0388 -0.25,-0.125 -0.0527,-0.0264 -0.0723,-0.0986 -0.125,-0.125 -0.0745,-0.0373 -0.17546,0.0373 -0.25,0 -0.0527,-0.0264 -0.0723,-0.0986 -0.125,-0.125 -0.0373,-0.0186 -0.0877,0.0186 -0.125,0 -0.0527,-0.0264 -0.0723,-0.0986 -0.125,-0.125 -0.0373,-0.0186 -0.0877,0.0186 -0.125,0 -0.26667,-0.13333 0.0167,-0.11667 -0.25,-0.25 -0.0373,-0.0186 -0.0955,0.0295 -0.125,0 -0.0295,-0.0295 0.0295,-0.0955 0,-0.125 -0.0295,-0.0295 -0.0833,0 -0.125,0 -0.0833,0 -0.16667,0 -0.25,0 -0.0417,0 -0.0877,0.0186 -0.125,0 -0.0527,-0.0264 -0.0723,-0.0986 -0.125,-0.125 -0.0745,-0.0373 -0.17546,0.0373 -0.25,0 -0.0527,-0.0264 -0.0723,-0.0986 -0.125,-0.125 -0.0745,-0.0373 -0.17546,0.0373 -0.25,0 -0.0527,-0.0264 -0.0723,-0.0986 -0.125,-0.125 -0.0373,-0.0186 -0.0833,0 -0.125,0 -0.0417,0 -0.0833,0 -0.125,0 -0.16667,0 -0.33333,0 -0.5,0 -0.25,0 -0.5,0 -0.75,0 -0.0417,0 -0.0955,-0.0295 -0.125,0 -0.0295,0.0295 0.0295,0.0955 0,0.125 -0.0291,0.0291 -0.19785,-0.0261 -0.25,0 -0.0527,0.0264 -0.0723,0.0986 -0.125,0.125 -0.1333,0.0667 -0.11669,-0.0667 -0.25,0 -0.41457,0.41457 0.11785,-0.0589 -0.25,0.125 -0.0527,0.0264 -0.0723,0.0986 -0.125,0.125 -0.0745,0.0373 -0.17546,-0.0373 -0.25,0 -0.1333,0.0667 -0.11669,0.18335 -0.25,0.25 -0.0521,0.0261 -0.2209,-0.0291 -0.25,0 -0.0295,0.0295 0.0295,0.0955 0,0.125 -0.0295,0.0295 -0.0955,-0.0295 -0.125,0 -0.25863,0.25863 0.39522,-0.0101 -0.125,0.25 -0.0373,0.0186 -0.0877,-0.0186 -0.125,0 -0.0527,0.0264 -0.0723,0.0986 -0.125,0.125 -0.0373,0.0186 -0.0877,-0.0186 -0.125,0 -0.0527,0.0264 -0.0723,0.0986 -0.125,0.125 -0.0373,0.0186 -0.0877,-0.0186 -0.125,0 -0.0527,0.0264 -0.0833,0.0833 -0.125,0.125 -0.0417,0.0417 -0.0833,0.0833 -0.125,0.125 -0.0417,0.0417 -0.0987,0.0723 -0.125,0.125 -0.0862,0.17242 0.15138,0.11181 -0.125,0.25 -0.0373,0.0186 -0.0877,-0.0186 -0.125,0 -0.13333,0.0667 -0.11667,0.18333 -0.25,0.25 -0.0373,0.0186 -0.0955,-0.0295 -0.125,0 -0.0295,0.0295 0.0186,0.0877 0,0.125 -0.0527,0.10541 -0.19729,0.14459 -0.25,0.25 -0.0186,0.0373 0,0.0833 0,0.125 0,0.125 0,0.25 0,0.375 0,0.0417 0.0186,0.0877 0,0.125 -0.0263,0.0527 -0.0987,0.0723 -0.125,0.125 -0.0186,0.0373 0,0.0833 0,0.125 0,0.0833 0,0.16667 0,0.25 0,0.0417 0.0295,0.0955 0,0.125 -0.0295,0.0295 -0.0955,-0.0295 -0.125,0 -0.0295,0.0295 0,0.0833 0,0.125 0,0.125 0,0.25 0,0.375 0,0.16667 0,0.0833 0,0.25 0,0.0417 0.0186,0.0877 0,0.125 -0.0263,0.0527 -0.0987,0.0723 -0.125,0.125 -0.0186,0.0373 0,0.0833 0,0.125 0,0.0833 0,0.16667 0,0.25 0,0.25 0,0.5 0,0.75 0,0.125 0,0.25 0,0.375 0,0.0417 -0.0186,0.0877 0,0.125 0.0263,0.0527 0.0987,0.0723 0.125,0.125 0.0186,0.0373 0,0.0833 0,0.125 0,0.0417 0,0.0833 0,0.125 0,0.125 0,0.25 0,0.375 0,0.0417 -0.0186,0.0877 0,0.125 0.0263,0.0527 0.0987,0.0723 0.125,0.125 0.0186,0.0373 0,0.0833 0,0.125 0,0.0833 0,0.16667 0,0.25 0,0.0417 -0.0295,0.0955 0,0.125 0.0295,0.0295 0.0955,-0.0295 0.125,0 0.0291,0.0291 -0.0261,0.19786 0,0.25 0.0263,0.0527 0.0987,0.0723 0.125,0.125 0.0186,0.0373 0,0.0833 0,0.125 0,0.0833 0,0.16667 0,0.25 0,0.0417 -0.0295,0.0955 0,0.125 0.0295,0.0295 0.0955,-0.0295 0.125,0 0.0295,0.0295 0,0.0833 0,0.125 0,0.0833 0,0.16667 0,0.25 0,0.0417 -0.0186,0.0877 0,0.125 0.0263,0.0527 0.0987,0.0723 0.125,0.125 0.0373,0.0745 -0.0373,0.17546 0,0.25 0.0263,0.0527 0.0987,0.0723 0.125,0.125 0.0186,0.0373 0,0.0833 0,0.125 0,0.0417 0,0.0833 0,0.125 0,0.0417 -0.0295,0.0955 0,0.125 0.0295,0.0295 0.0955,-0.0295 0.125,0 0.0295,0.0295 -0.0295,0.0955 0,0.125 0.0295,0.0295 0.0955,-0.0295 0.125,0 0.0833,0.0833 -0.0833,0.16665 0,0.25 0.0295,0.0295 0.0955,-0.0295 0.125,0 0.0295,0.0295 -0.0295,0.0955 0,0.125 0.0295,0.0295 0.0955,-0.0295 0.125,0 0.0295,0.0295 -0.0295,0.0955 0,0.125 0.0295,0.0295 0.0955,-0.0295 0.125,0 0.0295,0.0295 -0.0295,0.0955 0,0.125 0.0295,0.0295 0.0955,-0.0295 0.125,0 0.0295,0.0295 -0.0295,0.0955 0,0.125 0.0295,0.0295 0.0877,-0.0186 0.125,0 0.0527,0.0264 0.0833,0.0833 0.125,0.125 0.0417,0.0417 0.0987,0.0723 0.125,0.125 0.0186,0.0373 -0.0295,0.0955 0,0.125 0.0295,0.0295 0.0955,-0.0295 0.125,0 0.0295,0.0295 -0.0186,0.0877 0,0.125 0.0263,0.0527 0.0987,0.0723 0.125,0.125 0.0186,0.0373 -0.0295,0.0955 0,0.125 0.0295,0.0295 0.0833,0 0.125,0 0,0.0417 -0.0295,0.0955 0,0.125 0.0295,0.0295 0.0955,-0.0295 0.125,0 0.0295,0.0295 -0.0295,0.0955 0,0.125 0.0295,0.0295 0.0955,-0.0295 0.125,0 0.0295,0.0295 -0.0186,0.0877 0,0.125 0.0263,0.0527 0.0833,0.0833 0.125,0.125 0.0417,0.0417 0.0723,0.0986 0.125,0.125 0.0373,0.0186 0.0955,-0.0295 0.125,0 0.0295,0.0295 -0.0186,0.0877 0,0.125 0.0263,0.0527 0.0833,0.0833 0.125,0.125 0.1667,0.1667 0.0833,0.0833 0.25,0.25 0.0417,0.0417 0.0987,0.0723 0.125,0.125 0.0186,0.0373 -0.0186,0.0877 0,0.125 0.0527,0.10541 0.1973,0.14459 0.25,0.25 0.0186,0.0373 -0.0295,0.0955 0,0.125 0.0295,0.0295 0.0955,-0.0295 0.125,0 0.0295,0.0295 -0.0186,0.0877 0,0.125 0.0527,0.10541 0.1973,0.14459 0.25,0.25 0.0186,0.0373 -0.0186,0.0877 0,0.125 0.0263,0.0527 0.0987,0.0723 0.125,0.125 0.0186,0.0373 -0.0295,0.0955 0,0.125 0.25863,0.25863 -0.0101,-0.39522 0.25,0.125 0.0373,0.0745 -0.0373,0.17546 0,0.25 0.0263,0.0527 0.0833,0.0833 0.125,0.125 0.0833,0.0833 0.16667,0.16667 0.25,0.25 0.0417,0.0417 0.0987,0.0723 0.125,0.125 0.0186,0.0373 -0.0186,0.0877 0,0.125 0.26011,0.52022 -0.009,-0.13363 0.25,0.125 0.0295,0.0295 -0.0186,0.0877 0,0.125 0.0527,0.10541 0.1973,0.14459 0.25,0.25 0.0186,0.0373 -0.0295,0.0955 0,0.125 0.25863,0.25863 -0.0101,-0.39522 0.25,0.125 0.0373,0.0745 -0.0373,0.17546 0,0.25 0.0263,0.0527 0.0833,0.0833 0.125,0.125 0.0417,0.0417 0.0723,0.0986 0.125,0.125 0.0373,0.0186 0.0955,-0.0295 0.125,0 0.0295,0.0295 -0.0186,0.0877 0,0.125 0.0527,0.10541 0.1973,0.14459 0.25,0.25 0.0186,0.0373 -0.0186,0.0877 0,0.125 0.0527,0.10541 0.1973,0.14459 0.25,0.25 0.0186,0.0373 -0.0295,0.0955 0,0.125 0.0295,0.0295 0.0955,-0.0295 0.125,0 0.0295,0.0295 -0.0186,0.0877 0,0.125 0.0263,0.0527 0.0833,0.0833 0.125,0.125 0.0417,0.0417 0.0833,0.0833 0.125,0.125 0.0417,0.0417 0.0987,0.0723 0.125,0.125 0.0261,0.0521 -0.0291,0.2209 0,0.25 0.0295,0.0295 0.0955,-0.0295 0.125,0 0.0291,0.0291 -0.0261,0.19786 0,0.25 0.0263,0.0527 0.0987,0.0723 0.125,0.125 0.0373,0.0745 -0.0373,0.17546 0,0.25 0.0263,0.0527 0.0987,0.0723 0.125,0.125 0.0186,0.0373 0,0.0833 0,0.125 0,0.125 0,0.25 0,0.375 0,0.0417 -0.0186,0.0877 0,0.125 0.0263,0.0527 0.0987,0.0723 0.125,0.125 0.0186,0.0373 0,0.0833 0,0.125 0,0.0417 0,0.0833 0,0.125 0,0.16667 0,0.33333 0,0.5 0,0.0417 0.0295,0.0955 0,0.125 -0.0295,0.0295 -0.0955,-0.0295 -0.125,0 -0.0291,0.0291 0.0261,0.19786 0,0.25 -0.0263,0.0527 -0.0987,0.0723 -0.125,0.125 -0.0373,0.0745 0.0373,0.17546 0,0.25 -0.0263,0.0527 -0.0987,0.0723 -0.125,0.125 -0.0186,0.0373 0.0295,0.0955 0,0.125 -0.0295,0.0295 -0.0955,-0.0295 -0.125,0 -0.0291,0.0291 0.0261,0.19786 0,0.25 -0.26011,0.52022 0.009,-0.13363 -0.25,0.125 -0.0295,0.0295 0.0186,0.0877 0,0.125 -0.0527,0.10541 -0.19729,0.14459 -0.25,0.25 -0.0186,0.0373 0.0295,0.0955 0,0.125 -0.0295,0.0295 -0.0955,-0.0295 -0.125,0 -0.0295,0.0295 0.0295,0.0955 0,0.125 -0.0295,0.0295 -0.0955,-0.0295 -0.125,0 -0.0295,0.0295 0.0295,0.0955 0,0.125 -0.0295,0.0295 -0.0955,-0.0295 -0.125,0 -0.0295,0.0295 0.0295,0.0955 0,0.125 -0.0295,0.0295 -0.0955,-0.0295 -0.125,0 -0.0295,0.0295 0.0295,0.0955 0,0.125 -0.0295,0.0295 -0.0955,-0.0295 -0.125,0 -0.0295,0.0295 0.0295,0.0955 0,0.125 -0.0295,0.0295 -0.0877,-0.0186 -0.125,0 -0.0527,0.0264 -0.0833,0.0833 -0.125,0.125 -0.0417,0.0417 -0.0987,0.0723 -0.125,0.125 -0.0186,0.0373 0.0295,0.0955 0,0.125 -0.0295,0.0295 -0.0877,-0.0186 -0.125,0 -0.0527,0.0264 -0.0723,0.0986 -0.125,0.125 -0.0373,0.0186 -0.0955,-0.0295 -0.125,0 -0.0295,0.0295 0.0295,0.0955 0,0.125 -0.0295,0.0295 -0.0955,-0.0295 -0.125,0 -0.0295,0.0295 0,0.0833 0,0.125 -0.0417,0 -0.0955,-0.0295 -0.125,0 -0.0295,0.0295 0.0295,0.0955 0,0.125 -0.0833,0.0833 -0.16665,-0.0833 -0.25,0 -0.0295,0.0295 0.0295,0.0955 0,0.125 -0.0291,0.0291 -0.19785,-0.0261 -0.25,0 -0.0527,0.0264 -0.0723,0.0986 -0.125,0.125 -0.0373,0.0186 -0.0833,0 -0.125,0 -0.0417,0 -0.0833,0 -0.125,0 -0.0417,0 -0.0833,0 -0.125,0 -0.0417,0 -0.125,0.0417 -0.125,0 0,-0.0417 0.125,-0.0417 0.125,0 0,0.0589 -0.0723,0.0986 -0.125,0.125 -0.0373,0.0186 -0.0833,0 -0.125,0 -0.0417,0 -0.0833,0 -0.125,0 -0.125,0 -0.25,0 -0.375,0 -0.0417,0 -0.0955,-0.0295 -0.125,0 -0.0295,0.0295 0.0295,0.0955 0,0.125 -0.0295,0.0295 -0.0833,0 -0.125,0 -0.0417,0 -0.0833,0 -0.125,0"
         inkscape:connector-curvature="0" />
    </g>
  </g>
</svg>
